<?xml version="1.0" encoding="UTF-8" standalone="no"?>
<!DOCTYPE svg PUBLIC "-//W3C//DTD SVG 1.1//EN" "http://www.w3.org/Graphics/SVG/1.1/DTD/svg11.dtd">
<svg xmlns="http://www.w3.org/2000/svg" version="1.1" viewBox="0.00 0.00 1237.00 1237.00">
<g stroke-width="2.00" fill="none" stroke-linecap="butt">
<path stroke="#6e5800" vector-effect="non-scaling-stroke" d="
  M 1195.80 618.69
  A 577.06 577.06 0.0 0 0 618.74 41.63
  A 577.06 577.06 0.0 0 0 41.68 618.69
  A 577.06 577.06 0.0 0 0 618.74 1195.75
  A 577.06 577.06 0.0 0 0 1195.80 618.69"
/>
<path stroke="#6e5800" vector-effect="non-scaling-stroke" d="
  M 1094.28 637.76
  C 1094.41 633.98 1095.00 629.44 1095.04 625.24
  Q 1095.30 598.70 1092.91 572.26
  C 1085.59 491.56 1058.47 415.22 1012.85 348.15
  Q 957.88 267.31 875.50 214.35
  C 788.22 158.23 684.11 132.27 580.54 140.63
  Q 499.04 147.21 424.56 180.66
  Q 413.94 185.43 403.42 190.41
  Q 396.84 193.52 379.74 203.53
  C 323.74 236.29 275.00 279.59 236.69 331.20
  Q 153.86 442.80 143.70 582.52
  Q 143.06 591.34 143.01 602.50
  C 142.95 617.20 142.58 632.00 143.68 646.67
  Q 144.64 659.55 145.04 663.50
  C 160.02 813.10 245.88 946.84 374.89 1024.02
  Q 395.17 1036.16 409.73 1043.29
  C 471.07 1073.34 540.29 1090.33 609.75 1091.03
  Q 634.07 1091.27 643.75 1090.74
  Q 762.18 1084.27 863.54 1023.50
  Q 902.40 1000.20 930.82 974.82
  C 949.69 957.96 960.99 946.82 976.71 929.04
  C 1041.15 856.14 1081.19 764.71 1091.98 668.00
  Q 1093.76 652.04 1094.28 637.76"
/>
<path stroke="#6e5800" vector-effect="non-scaling-stroke" d="
  M 606.43 147.96
  A 0.30 0.30 0.0 0 0 606.14 147.57
  C 510.86 150.66 419.71 181.00 343.11 237.33
  C 266.87 293.40 209.09 370.29 177.32 460.02
  A 0.26 0.26 0.0 0 0 177.57 460.37
  L 504.51 460.34
  A 0.82 0.82 0.0 0 0 505.29 459.77
  L 606.43 147.96"
/>
<path stroke="#6e5800" vector-effect="non-scaling-stroke" d="
  M 897.47 239.82
  C 820.68 182.32 728.03 150.32 632.11 147.71
  Q 631.53 147.69 631.71 148.24
  L 732.83 459.38
  A 1.42 1.42 0.0 0 0 734.18 460.36
  L 1059.77 460.35
  A 0.37 0.36 -9.9 0 0 1060.12 459.86
  Q 1056.49 449.63 1052.33 439.54
  Q 1002.30 318.32 897.47 239.82"
/>
<path stroke="#6e5800" vector-effect="non-scaling-stroke" d="
  M 617.31 416.32
  C 623.57 414.17 624.49 424.04 625.77 427.83
  Q 633.57 451.04 641.28 474.30
  C 642.40 477.65 643.40 481.69 644.61 485.35
  Q 660.37 533.09 675.66 580.97
  C 680.63 596.54 686.34 613.21 691.34 629.48
  Q 691.82 631.03 692.07 632.47
  A 0.42 0.42 0.0 0 0 692.73 632.74
  L 762.15 582.41
  Q 763.44 581.47 763.01 579.93
  Q 759.50 567.23 754.67 554.33
  C 751.17 544.95 748.02 533.47 744.85 524.08
  C 739.49 508.18 734.71 492.76 729.26 476.21
  C 725.12 463.59 721.42 450.66 717.23 438.27
  Q 713.78 428.06 710.54 417.79
  C 701.55 389.28 691.93 361.48 682.83 332.47
  C 674.89 307.17 666.22 282.29 658.20 256.80
  Q 654.49 245.00 652.11 237.76
  C 646.97 222.15 642.14 206.42 636.84 190.87
  C 632.47 178.08 628.35 164.08 623.69 150.78
  Q 623.08 149.02 623.02 148.94
  Q 622.44 148.14 621.01 148.04
  Q 618.40 147.85 615.73 148.10
  Q 615.12 148.15 614.93 148.73
  L 514.17 459.37
  Q 513.96 460.02 514.65 460.02
  L 600.54 460.03
  A 1.63 1.63 0.0 0 0 602.07 458.96
  C 606.86 445.62 610.62 432.28 615.35 419.05
  Q 616.18 416.71 617.31 416.32"
/>
<path stroke="#6e5800" vector-effect="non-scaling-stroke" d="
  M 610.67 460.01
  A 0.31 0.31 0.0 0 0 610.97 460.42
  L 627.27 460.42
  A 0.31 0.31 0.0 0 0 627.57 460.01
  L 619.42 434.64
  A 0.31 0.31 0.0 0 0 618.82 434.64
  L 610.67 460.01"
/>
<path stroke="#6e5800" vector-effect="non-scaling-stroke" d="
  M 427.43 556.27
  C 428.33 552.58 431.88 551.99 434.76 551.99
  Q 545.65 552.03 656.60 551.99
  Q 657.28 551.99 657.07 551.34
  L 630.80 470.58
  A 2.32 2.31 81.0 0 0 628.60 468.98
  L 175.15 468.99
  Q 174.40 468.99 174.17 469.70
  L 172.19 475.67
  A 0.70 0.69 27.4 0 0 172.44 476.44
  L 436.01 667.55
  Q 437.31 668.49 437.77 667.10
  L 463.86 586.68
  A 2.53 2.28 -64.5 0 0 463.04 583.92
  Q 447.21 572.85 430.85 561.17
  Q 428.57 559.54 427.49 557.04
  A 1.23 1.18 -50.5 0 1 427.43 556.27"
/>
<path stroke="#6e5800" vector-effect="non-scaling-stroke" d="
  M 809.71 558.48
  A 2.29 2.24 84.5 0 1 808.96 559.41
  C 747.86 602.96 687.24 647.27 626.52 691.40
  Q 626.12 691.69 626.50 692.02
  Q 629.70 694.72 633.11 697.16
  Q 663.95 719.25 694.41 741.87
  Q 696.82 743.66 699.33 741.85
  Q 713.84 731.45 720.65 726.44
  C 754.21 701.77 788.07 677.55 821.73 653.01
  Q 942.51 564.96 1063.80 477.60
  C 1066.05 475.97 1064.55 472.60 1063.77 470.69
  C 1063.20 469.30 1062.12 469.02 1060.75 469.02
  Q 910.45 469.00 760.15 469.00
  C 754.27 469.00 744.29 468.76 736.36 469.08
  Q 735.90 469.10 736.04 469.54
  L 762.35 550.70
  A 1.93 1.92 80.6 0 0 764.19 552.03
  Q 783.95 551.90 803.75 552.07
  C 807.80 552.11 811.74 553.83 809.71 558.48"
/>
<path stroke="#6e5800" vector-effect="non-scaling-stroke" d="
  M 169.28 485.24
  C 115.72 671.02 181.59 868.18 333.32 985.84
  A 0.66 0.65 -62.2 0 0 334.34 985.52
  L 434.18 678.31
  A 2.13 2.13 0.0 0 0 433.41 675.93
  L 170.06 484.97
  A 0.51 0.50 -64.0 0 0 169.28 485.24"
/>
<path stroke="#6e5800" vector-effect="non-scaling-stroke" d="
  M 909.88 981.44
  C 1058.39 862.37 1120.36 669.14 1068.36 485.35
  A 0.63 0.63 0.0 0 0 1067.39 485.01
  L 803.83 676.15
  Q 803.35 676.50 803.54 677.06
  L 903.84 985.69
  A 0.25 0.24 -29.9 0 0 904.24 985.79
  C 906.02 984.18 908.33 982.68 909.88 981.44"
/>
<path stroke="#6e5800" vector-effect="non-scaling-stroke" d="
  M 466.88 576.55
  A 0.34 0.34 0.0 0 0 467.40 576.38
  L 472.34 561.09
  A 0.34 0.34 0.0 0 0 472.02 560.64
  L 445.64 560.57
  A 0.34 0.34 0.0 0 0 445.44 561.18
  L 466.88 576.55"
/>
<path stroke="#6e5800" vector-effect="non-scaling-stroke" d="
  M 578.92 560.64
  A 1.29 1.29 0.0 0 0 577.69 561.53
  L 552.75 637.73
  A 1.29 1.29 0.0 0 0 553.22 639.17
  L 618.02 686.27
  A 1.29 1.29 0.0 0 0 619.54 686.27
  L 684.78 638.87
  A 1.29 1.29 0.0 0 0 685.25 637.43
  L 660.61 561.54
  A 1.29 1.29 0.0 0 0 659.38 560.65
  L 578.92 560.64"
/>
<path stroke="#6e5800" vector-effect="non-scaling-stroke" d="
  M 766.18 560.67
  A 0.31 0.31 0.0 0 0 765.88 561.08
  L 770.71 576.02
  A 0.31 0.31 0.0 0 0 771.18 576.18
  L 792.21 561.14
  A 0.31 0.31 0.0 0 0 792.03 560.57
  L 766.18 560.67"
/>
<path stroke="#6e5800" vector-effect="non-scaling-stroke" d="
  M 541.08 754.29
  A 0.55 0.54 53.0 0 0 540.61 754.22
  Q 539.16 754.70 537.61 755.84
  Q 521.78 767.54 505.87 779.13
  C 503.31 781.00 500.67 779.34 499.80 776.77
  Q 499.39 775.54 499.93 773.76
  Q 506.00 753.83 512.81 734.14
  C 514.33 729.75 515.56 724.68 516.99 720.49
  Q 523.30 702.03 529.14 683.42
  C 532.51 672.67 536.58 661.08 540.10 649.82
  Q 543.57 638.71 546.26 630.79
  C 554.03 607.97 561.20 584.84 568.78 562.07
  Q 569.14 560.99 568.00 560.99
  L 482.83 560.89
  A 2.21 2.20 8.9 0 0 480.73 562.42
  L 341.41 990.56
  Q 341.03 991.72 341.84 992.26
  L 347.99 996.42
  A 0.91 0.90 43.9 0 0 349.03 996.41
  L 610.72 806.26
  A 0.82 0.82 0.0 0 0 610.72 804.94
  L 541.08 754.29"
/>
<path stroke="#6e5800" vector-effect="non-scaling-stroke" d="
  M 725.48 733.82
  Q 731.76 754.59 738.78 774.52
  C 740.30 778.85 735.15 781.67 731.76 779.21
  Q 642.24 714.15 552.84 648.91
  Q 551.60 648.00 550.71 647.41
  Q 550.05 646.97 549.81 647.72
  L 523.26 729.11
  A 2.15 2.15 0.0 0 0 524.04 731.52
  L 888.30 996.31
  A 1.33 1.33 0.0 0 0 889.85 996.32
  L 896.70 991.45
  A 0.36 0.35 -26.1 0 0 896.84 991.05
  L 796.41 682.14
  A 0.29 0.29 0.0 0 0 795.97 681.99
  L 725.73 733.05
  A 0.70 0.69 63.5 0 0 725.48 733.82"
/>
<path stroke="#6e5800" vector-effect="non-scaling-stroke" d="
  M 718.25 738.97
  A 0.35 0.35 0.0 0 0 717.71 738.80
  L 704.42 748.45
  A 0.35 0.35 0.0 0 0 704.42 749.02
  L 725.96 764.70
  A 0.35 0.35 0.0 0 0 726.50 764.30
  L 718.25 738.97"
/>
<path stroke="#6e5800" vector-effect="non-scaling-stroke" d="
  M 533.13 749.02
  A 0.32 0.32 0.0 0 0 533.13 748.50
  L 520.26 739.15
  A 0.32 0.32 0.0 0 0 519.77 739.31
  L 511.84 763.75
  A 0.32 0.32 0.0 0 0 512.33 764.11
  L 533.13 749.02"
/>
<path stroke="#6e5800" vector-effect="non-scaling-stroke" d="
  M 356.07 1002.28
  C 514.20 1110.21 723.52 1109.64 881.60 1002.25
  Q 882.02 1001.97 881.61 1001.67
  L 619.78 811.46
  Q 618.75 810.71 617.71 811.46
  L 356.06 1001.57
  A 0.43 0.43 0.0 0 0 356.07 1002.28"
/>
</g>
<path fill="#000000" d="
  M 1203.32 618.69
  A 584.57 584.57 0.0 0 1 618.75 1203.26
  A 584.57 584.57 0.0 0 1 34.18 618.69
  A 584.57 584.57 0.0 0 1 618.75 34.12
  A 584.57 584.57 0.0 0 1 1203.32 618.69
  Z
  M 1195.80 618.69
  A 577.06 577.06 0.0 0 0 618.74 41.63
  A 577.06 577.06 0.0 0 0 41.68 618.69
  A 577.06 577.06 0.0 0 0 618.74 1195.75
  A 577.06 577.06 0.0 0 0 1195.80 618.69
  Z"
/>
<path fill="#dbb000" d="
  M 1195.80 618.69
  A 577.06 577.06 0.0 0 1 618.74 1195.75
  A 577.06 577.06 0.0 0 1 41.68 618.69
  A 577.06 577.06 0.0 0 1 618.74 41.63
  A 577.06 577.06 0.0 0 1 1195.80 618.69
  Z
  M 1094.28 637.76
  C 1094.41 633.98 1095.00 629.44 1095.04 625.24
  Q 1095.30 598.70 1092.91 572.26
  C 1085.59 491.56 1058.47 415.22 1012.85 348.15
  Q 957.88 267.31 875.50 214.35
  C 788.22 158.23 684.11 132.27 580.54 140.63
  Q 499.04 147.21 424.56 180.66
  Q 413.94 185.43 403.42 190.41
  Q 396.84 193.52 379.74 203.53
  C 323.74 236.29 275.00 279.59 236.69 331.20
  Q 153.86 442.80 143.70 582.52
  Q 143.06 591.34 143.01 602.50
  C 142.95 617.20 142.58 632.00 143.68 646.67
  Q 144.64 659.55 145.04 663.50
  C 160.02 813.10 245.88 946.84 374.89 1024.02
  Q 395.17 1036.16 409.73 1043.29
  C 471.07 1073.34 540.29 1090.33 609.75 1091.03
  Q 634.07 1091.27 643.75 1090.74
  Q 762.18 1084.27 863.54 1023.50
  Q 902.40 1000.20 930.82 974.82
  C 949.69 957.96 960.99 946.82 976.71 929.04
  C 1041.15 856.14 1081.19 764.71 1091.98 668.00
  Q 1093.76 652.04 1094.28 637.76
  Z"
/>
<path fill="#000000" d="
  M 1094.28 637.76
  Q 1093.76 652.04 1091.98 668.00
  C 1081.19 764.71 1041.15 856.14 976.71 929.04
  C 960.99 946.82 949.69 957.96 930.82 974.82
  Q 902.40 1000.20 863.54 1023.50
  Q 762.18 1084.27 643.75 1090.74
  Q 634.07 1091.27 609.75 1091.03
  C 540.29 1090.33 471.07 1073.34 409.73 1043.29
  Q 395.17 1036.16 374.89 1024.02
  C 245.88 946.84 160.02 813.10 145.04 663.50
  Q 144.64 659.55 143.68 646.67
  C 142.58 632.00 142.95 617.20 143.01 602.50
  Q 143.06 591.34 143.70 582.52
  Q 153.86 442.80 236.69 331.20
  C 275.00 279.59 323.74 236.29 379.74 203.53
  Q 396.84 193.52 403.42 190.41
  Q 413.94 185.43 424.56 180.66
  Q 499.04 147.21 580.54 140.63
  C 684.11 132.27 788.22 158.23 875.50 214.35
  Q 957.88 267.31 1012.85 348.15
  C 1058.47 415.22 1085.59 491.56 1092.91 572.26
  Q 1095.30 598.70 1095.04 625.24
  C 1095.00 629.44 1094.41 633.98 1094.28 637.76
  Z
  M 606.43 147.96
  A 0.30 0.30 0.0 0 0 606.14 147.57
  C 510.86 150.66 419.71 181.00 343.11 237.33
  C 266.87 293.40 209.09 370.29 177.32 460.02
  A 0.26 0.26 0.0 0 0 177.57 460.37
  L 504.51 460.34
  A 0.82 0.82 0.0 0 0 505.29 459.77
  L 606.43 147.96
  Z
  M 897.47 239.82
  C 820.68 182.32 728.03 150.32 632.11 147.71
  Q 631.53 147.69 631.71 148.24
  L 732.83 459.38
  A 1.42 1.42 0.0 0 0 734.18 460.36
  L 1059.77 460.35
  A 0.37 0.36 -9.9 0 0 1060.12 459.86
  Q 1056.49 449.63 1052.33 439.54
  Q 1002.30 318.32 897.47 239.82
  Z
  M 617.31 416.32
  C 623.57 414.17 624.49 424.04 625.77 427.83
  Q 633.57 451.04 641.28 474.30
  C 642.40 477.65 643.40 481.69 644.61 485.35
  Q 660.37 533.09 675.66 580.97
  C 680.63 596.54 686.34 613.21 691.34 629.48
  Q 691.82 631.03 692.07 632.47
  A 0.42 0.42 0.0 0 0 692.73 632.74
  L 762.15 582.41
  Q 763.44 581.47 763.01 579.93
  Q 759.50 567.23 754.67 554.33
  C 751.17 544.95 748.02 533.47 744.85 524.08
  C 739.49 508.18 734.71 492.76 729.26 476.21
  C 725.12 463.59 721.42 450.66 717.23 438.27
  Q 713.78 428.06 710.54 417.79
  C 701.55 389.28 691.93 361.48 682.83 332.47
  C 674.89 307.17 666.22 282.29 658.20 256.80
  Q 654.49 245.00 652.11 237.76
  C 646.97 222.15 642.14 206.42 636.84 190.87
  C 632.47 178.08 628.35 164.08 623.69 150.78
  Q 623.08 149.02 623.02 148.94
  Q 622.44 148.14 621.01 148.04
  Q 618.40 147.85 615.73 148.10
  Q 615.12 148.15 614.93 148.73
  L 514.17 459.37
  Q 513.96 460.02 514.65 460.02
  L 600.54 460.03
  A 1.63 1.63 0.0 0 0 602.07 458.96
  C 606.86 445.62 610.62 432.28 615.35 419.05
  Q 616.18 416.71 617.31 416.32
  Z
  M 610.67 460.01
  A 0.31 0.31 0.0 0 0 610.97 460.42
  L 627.27 460.42
  A 0.31 0.31 0.0 0 0 627.57 460.01
  L 619.42 434.64
  A 0.31 0.31 0.0 0 0 618.82 434.64
  L 610.67 460.01
  Z
  M 427.43 556.27
  C 428.33 552.58 431.88 551.99 434.76 551.99
  Q 545.65 552.03 656.60 551.99
  Q 657.28 551.99 657.07 551.34
  L 630.80 470.58
  A 2.32 2.31 81.0 0 0 628.60 468.98
  L 175.15 468.99
  Q 174.40 468.99 174.17 469.70
  L 172.19 475.67
  A 0.70 0.69 27.4 0 0 172.44 476.44
  L 436.01 667.55
  Q 437.31 668.49 437.77 667.10
  L 463.86 586.68
  A 2.53 2.28 -64.5 0 0 463.04 583.92
  Q 447.21 572.85 430.85 561.17
  Q 428.57 559.54 427.49 557.04
  A 1.23 1.18 -50.5 0 1 427.43 556.27
  Z
  M 809.71 558.48
  A 2.29 2.24 84.5 0 1 808.96 559.41
  C 747.86 602.96 687.24 647.27 626.52 691.40
  Q 626.12 691.69 626.50 692.02
  Q 629.70 694.72 633.11 697.16
  Q 663.95 719.25 694.41 741.87
  Q 696.82 743.66 699.33 741.85
  Q 713.84 731.45 720.65 726.44
  C 754.21 701.77 788.07 677.55 821.73 653.01
  Q 942.51 564.96 1063.80 477.60
  C 1066.05 475.97 1064.55 472.60 1063.77 470.69
  C 1063.20 469.30 1062.12 469.02 1060.75 469.02
  Q 910.45 469.00 760.15 469.00
  C 754.27 469.00 744.29 468.76 736.36 469.08
  Q 735.90 469.10 736.04 469.54
  L 762.35 550.70
  A 1.93 1.92 80.6 0 0 764.19 552.03
  Q 783.95 551.90 803.75 552.07
  C 807.80 552.11 811.74 553.83 809.71 558.48
  Z
  M 169.28 485.24
  C 115.72 671.02 181.59 868.18 333.32 985.84
  A 0.66 0.65 -62.2 0 0 334.34 985.52
  L 434.18 678.31
  A 2.13 2.13 0.0 0 0 433.41 675.93
  L 170.06 484.97
  A 0.51 0.50 -64.0 0 0 169.28 485.24
  Z
  M 909.88 981.44
  C 1058.39 862.37 1120.36 669.14 1068.36 485.35
  A 0.63 0.63 0.0 0 0 1067.39 485.01
  L 803.83 676.15
  Q 803.35 676.50 803.54 677.06
  L 903.84 985.69
  A 0.25 0.24 -29.9 0 0 904.24 985.79
  C 906.02 984.18 908.33 982.68 909.88 981.44
  Z
  M 466.88 576.55
  A 0.34 0.34 0.0 0 0 467.40 576.38
  L 472.34 561.09
  A 0.34 0.34 0.0 0 0 472.02 560.64
  L 445.64 560.57
  A 0.34 0.34 0.0 0 0 445.44 561.18
  L 466.88 576.55
  Z
  M 578.92 560.64
  A 1.29 1.29 0.0 0 0 577.69 561.53
  L 552.75 637.73
  A 1.29 1.29 0.0 0 0 553.22 639.17
  L 618.02 686.27
  A 1.29 1.29 0.0 0 0 619.54 686.27
  L 684.78 638.87
  A 1.29 1.29 0.0 0 0 685.25 637.43
  L 660.61 561.54
  A 1.29 1.29 0.0 0 0 659.38 560.65
  L 578.92 560.64
  Z
  M 766.18 560.67
  A 0.31 0.31 0.0 0 0 765.88 561.08
  L 770.71 576.02
  A 0.31 0.31 0.0 0 0 771.18 576.18
  L 792.21 561.14
  A 0.31 0.31 0.0 0 0 792.03 560.57
  L 766.18 560.67
  Z
  M 541.08 754.29
  A 0.55 0.54 53.0 0 0 540.61 754.22
  Q 539.16 754.70 537.61 755.84
  Q 521.78 767.54 505.87 779.13
  C 503.31 781.00 500.67 779.34 499.80 776.77
  Q 499.39 775.54 499.93 773.76
  Q 506.00 753.83 512.81 734.14
  C 514.33 729.75 515.56 724.68 516.99 720.49
  Q 523.30 702.03 529.14 683.42
  C 532.51 672.67 536.58 661.08 540.10 649.82
  Q 543.57 638.71 546.26 630.79
  C 554.03 607.97 561.20 584.84 568.78 562.07
  Q 569.14 560.99 568.00 560.99
  L 482.83 560.89
  A 2.21 2.20 8.9 0 0 480.73 562.42
  L 341.41 990.56
  Q 341.03 991.72 341.84 992.26
  L 347.99 996.42
  A 0.91 0.90 43.9 0 0 349.03 996.41
  L 610.72 806.26
  A 0.82 0.82 0.0 0 0 610.72 804.94
  L 541.08 754.29
  Z
  M 725.48 733.82
  Q 731.76 754.59 738.78 774.52
  C 740.30 778.85 735.15 781.67 731.76 779.21
  Q 642.24 714.15 552.84 648.91
  Q 551.60 648.00 550.71 647.41
  Q 550.05 646.97 549.81 647.72
  L 523.26 729.11
  A 2.15 2.15 0.0 0 0 524.04 731.52
  L 888.30 996.31
  A 1.33 1.33 0.0 0 0 889.85 996.32
  L 896.70 991.45
  A 0.36 0.35 -26.1 0 0 896.84 991.05
  L 796.41 682.14
  A 0.29 0.29 0.0 0 0 795.97 681.99
  L 725.73 733.05
  A 0.70 0.69 63.5 0 0 725.48 733.82
  Z
  M 718.25 738.97
  A 0.35 0.35 0.0 0 0 717.71 738.80
  L 704.42 748.45
  A 0.35 0.35 0.0 0 0 704.42 749.02
  L 725.96 764.70
  A 0.35 0.35 0.0 0 0 726.50 764.30
  L 718.25 738.97
  Z
  M 533.13 749.02
  A 0.32 0.32 0.0 0 0 533.13 748.50
  L 520.26 739.15
  A 0.32 0.32 0.0 0 0 519.77 739.31
  L 511.84 763.75
  A 0.32 0.32 0.0 0 0 512.33 764.11
  L 533.13 749.02
  Z
  M 356.07 1002.28
  C 514.20 1110.21 723.52 1109.64 881.60 1002.25
  Q 882.02 1001.97 881.61 1001.67
  L 619.78 811.46
  Q 618.75 810.71 617.71 811.46
  L 356.06 1001.57
  A 0.43 0.43 0.0 0 0 356.07 1002.28
  Z"
/>
<path fill="#dbb000" d="
  M 606.43 147.96
  L 505.29 459.77
  A 0.82 0.82 0.0 0 1 504.51 460.34
  L 177.57 460.37
  A 0.26 0.26 0.0 0 1 177.32 460.02
  C 209.09 370.29 266.87 293.40 343.11 237.33
  C 419.71 181.00 510.86 150.66 606.14 147.57
  A 0.30 0.30 0.0 0 1 606.43 147.96
  Z"
/>
<path fill="#dbb000" d="
  M 632.11 147.71
  C 728.03 150.32 820.68 182.32 897.47 239.82
  Q 1002.30 318.32 1052.33 439.54
  Q 1056.49 449.63 1060.12 459.86
  A 0.37 0.36 -9.9 0 1 1059.77 460.35
  L 734.18 460.36
  A 1.42 1.42 0.0 0 1 732.83 459.38
  L 631.71 148.24
  Q 631.53 147.69 632.11 147.71
  Z"
/>
<path fill="#dbb000" d="
  M 617.31 416.32
  Q 616.18 416.71 615.35 419.05
  C 610.62 432.28 606.86 445.62 602.07 458.96
  A 1.63 1.63 0.0 0 1 600.54 460.03
  L 514.65 460.02
  Q 513.96 460.02 514.17 459.37
  L 614.93 148.73
  Q 615.12 148.15 615.73 148.10
  Q 618.40 147.85 621.01 148.04
  Q 622.44 148.14 623.02 148.94
  Q 623.08 149.02 623.69 150.78
  C 628.35 164.08 632.47 178.08 636.84 190.87
  C 642.14 206.42 646.97 222.15 652.11 237.76
  Q 654.49 245.00 658.20 256.80
  C 666.22 282.29 674.89 307.17 682.83 332.47
  C 691.93 361.48 701.55 389.28 710.54 417.79
  Q 713.78 428.06 717.23 438.27
  C 721.42 450.66 725.12 463.59 729.26 476.21
  C 734.71 492.76 739.49 508.18 744.85 524.08
  C 748.02 533.47 751.17 544.95 754.67 554.33
  Q 759.50 567.23 763.01 579.93
  Q 763.44 581.47 762.15 582.41
  L 692.73 632.74
  A 0.42 0.42 0.0 0 1 692.07 632.47
  Q 691.82 631.03 691.34 629.48
  C 686.34 613.21 680.63 596.54 675.66 580.97
  Q 660.37 533.09 644.61 485.35
  C 643.40 481.69 642.40 477.65 641.28 474.30
  Q 633.57 451.04 625.77 427.83
  C 624.49 424.04 623.57 414.17 617.31 416.32
  Z"
/>
<path fill="#dbb000" d="
  M 610.67 460.01
  L 618.82 434.64
  A 0.31 0.31 0.0 0 1 619.42 434.64
  L 627.57 460.01
  A 0.31 0.31 0.0 0 1 627.27 460.42
  L 610.97 460.42
  A 0.31 0.31 0.0 0 1 610.67 460.01
  Z"
/>
<path fill="#dbb000" d="
  M 427.49 557.04
  Q 428.57 559.54 430.85 561.17
  Q 447.21 572.85 463.04 583.92
  A 2.53 2.28 -64.5 0 1 463.86 586.68
  L 437.77 667.10
  Q 437.31 668.49 436.01 667.55
  L 172.44 476.44
  A 0.70 0.69 27.4 0 1 172.19 475.67
  L 174.17 469.70
  Q 174.40 468.99 175.15 468.99
  L 628.60 468.98
  A 2.32 2.31 81.0 0 1 630.80 470.58
  L 657.07 551.34
  Q 657.28 551.99 656.60 551.99
  Q 545.65 552.03 434.76 551.99
  C 431.88 551.99 428.33 552.58 427.43 556.27
  A 1.23 1.18 -50.5 0 0 427.49 557.04
  Z"
/>
<path fill="#dbb000" d="
  M 809.71 558.48
  C 811.74 553.83 807.80 552.11 803.75 552.07
  Q 783.95 551.90 764.19 552.03
  A 1.93 1.92 80.6 0 1 762.35 550.70
  L 736.04 469.54
  Q 735.90 469.10 736.36 469.08
  C 744.29 468.76 754.27 469.00 760.15 469.00
  Q 910.45 469.00 1060.75 469.02
  C 1062.12 469.02 1063.20 469.30 1063.77 470.69
  C 1064.55 472.60 1066.05 475.97 1063.80 477.60
  Q 942.51 564.96 821.73 653.01
  C 788.07 677.55 754.21 701.77 720.65 726.44
  Q 713.84 731.45 699.33 741.85
  Q 696.82 743.66 694.41 741.87
  Q 663.95 719.25 633.11 697.16
  Q 629.70 694.72 626.50 692.02
  Q 626.12 691.69 626.52 691.40
  C 687.24 647.27 747.86 602.96 808.96 559.41
  A 2.29 2.24 84.5 0 0 809.71 558.48
  Z"
/>
<path fill="#dbb000" d="
  M 333.32 985.84
  C 181.59 868.18 115.72 671.02 169.28 485.24
  A 0.51 0.50 -64.0 0 1 170.06 484.97
  L 433.41 675.93
  A 2.13 2.13 0.0 0 1 434.18 678.31
  L 334.34 985.52
  A 0.66 0.65 -62.2 0 1 333.32 985.84
  Z"
/>
<path fill="#dbb000" d="
  M 1068.36 485.35
  C 1120.36 669.14 1058.39 862.37 909.88 981.44
  C 908.33 982.68 906.02 984.18 904.24 985.79
  A 0.25 0.24 -29.9 0 1 903.84 985.69
  L 803.54 677.06
  Q 803.35 676.50 803.83 676.15
  L 1067.39 485.01
  A 0.63 0.63 0.0 0 1 1068.36 485.35
  Z"
/>
<path fill="#dbb000" d="
  M 466.88 576.55
  L 445.44 561.18
  A 0.34 0.34 0.0 0 1 445.64 560.57
  L 472.02 560.64
  A 0.34 0.34 0.0 0 1 472.34 561.09
  L 467.40 576.38
  A 0.34 0.34 0.0 0 1 466.88 576.55
  Z"
/>
<path fill="#dbb000" d="
  M 578.92 560.64
  L 659.38 560.65
  A 1.29 1.29 0.0 0 1 660.61 561.54
  L 685.25 637.43
  A 1.29 1.29 0.0 0 1 684.78 638.87
  L 619.54 686.27
  A 1.29 1.29 0.0 0 1 618.02 686.27
  L 553.22 639.17
  A 1.29 1.29 0.0 0 1 552.75 637.73
  L 577.69 561.53
  A 1.29 1.29 0.0 0 1 578.92 560.64
  Z"
/>
<path fill="#dbb000" d="
  M 766.18 560.67
  L 792.03 560.57
  A 0.31 0.31 0.0 0 1 792.21 561.14
  L 771.18 576.18
  A 0.31 0.31 0.0 0 1 770.71 576.02
  L 765.88 561.08
  A 0.31 0.31 0.0 0 1 766.18 560.67
  Z"
/>
<path fill="#dbb000" d="
  M 541.08 754.29
  L 610.72 804.94
  A 0.82 0.82 0.0 0 1 610.72 806.26
  L 349.03 996.41
  A 0.91 0.90 43.9 0 1 347.99 996.42
  L 341.84 992.26
  Q 341.03 991.72 341.41 990.56
  L 480.73 562.42
  A 2.21 2.20 8.9 0 1 482.83 560.89
  L 568.00 560.99
  Q 569.14 560.99 568.78 562.07
  C 561.20 584.84 554.03 607.97 546.26 630.79
  Q 543.57 638.71 540.10 649.82
  C 536.58 661.08 532.51 672.67 529.14 683.42
  Q 523.30 702.03 516.99 720.49
  C 515.56 724.68 514.33 729.75 512.81 734.14
  Q 506.00 753.83 499.93 773.76
  Q 499.39 775.54 499.80 776.77
  C 500.67 779.34 503.31 781.00 505.87 779.13
  Q 521.78 767.54 537.61 755.84
  Q 539.16 754.70 540.61 754.22
  A 0.55 0.54 53.0 0 1 541.08 754.29
  Z"
/>
<path fill="#dbb000" d="
  M 725.48 733.82
  A 0.70 0.69 63.5 0 1 725.73 733.05
  L 795.97 681.99
  A 0.29 0.29 0.0 0 1 796.41 682.14
  L 896.84 991.05
  A 0.36 0.35 -26.1 0 1 896.70 991.45
  L 889.85 996.32
  A 1.33 1.33 0.0 0 1 888.30 996.31
  L 524.04 731.52
  A 2.15 2.15 0.0 0 1 523.26 729.11
  L 549.81 647.72
  Q 550.05 646.97 550.71 647.41
  Q 551.60 648.00 552.84 648.91
  Q 642.24 714.15 731.76 779.21
  C 735.15 781.67 740.30 778.85 738.78 774.52
  Q 731.76 754.59 725.48 733.82
  Z"
/>
<path fill="#dbb000" d="
  M 718.25 738.97
  L 726.50 764.30
  A 0.35 0.35 0.0 0 1 725.96 764.70
  L 704.42 749.02
  A 0.35 0.35 0.0 0 1 704.42 748.45
  L 717.71 738.80
  A 0.35 0.35 0.0 0 1 718.25 738.97
  Z"
/>
<path fill="#dbb000" d="
  M 533.13 749.02
  L 512.33 764.11
  A 0.32 0.32 0.0 0 1 511.84 763.75
  L 519.77 739.31
  A 0.32 0.32 0.0 0 1 520.26 739.15
  L 533.13 748.50
  A 0.32 0.32 0.0 0 1 533.13 749.02
  Z"
/>
<path fill="#dbb000" d="
  M 881.60 1002.25
  C 723.52 1109.64 514.20 1110.21 356.07 1002.28
  A 0.43 0.43 0.0 0 1 356.06 1001.57
  L 617.71 811.46
  Q 618.75 810.71 619.78 811.46
  L 881.61 1001.67
  Q 882.02 1001.97 881.60 1002.25
  Z"
/>
</svg>
