<?xml version="1.0" encoding="UTF-8" standalone="no"?>
<!DOCTYPE svg PUBLIC "-//W3C//DTD SVG 1.1//EN" "http://www.w3.org/Graphics/SVG/1.1/DTD/svg11.dtd">
<svg xmlns="http://www.w3.org/2000/svg" version="1.1" viewBox="0.00 0.00 412.00 1474.00">
<g stroke-width="2.00" fill="none" stroke-linecap="butt">
<path stroke="#4e555f" vector-effect="non-scaling-stroke" d="
  M 200.40 137.08
  C 201.82 133.67 205.62 130.56 208.99 132.79
  C 213.29 135.64 214.00 139.81 214.00 145.17
  Q 214.00 612.36 214.00 1079.48
  Q 214.00 1080.01 214.53 1080.01
  L 248.25 1079.99
  A 0.76 0.76 0.0 0 0 249.01 1079.23
  Q 249.00 637.75 248.96 196.25
  C 248.96 187.10 245.51 178.14 243.35 169.48
  Q 225.28 96.75 206.86 25.00
  Q 206.38 23.13 205.94 25.01
  Q 202.49 39.66 198.60 54.35
  C 190.07 86.64 182.20 119.14 174.10 151.54
  C 171.82 160.69 167.78 175.09 165.11 187.02
  Q 164.01 191.95 164.01 197.00
  Q 164.01 630.37 163.88 1063.75
  Q 163.88 1071.65 164.07 1079.39
  A 0.59 0.59 0.0 0 0 164.66 1079.96
  L 198.48 1080.02
  A 0.53 0.53 0.0 0 0 199.01 1079.49
  Q 199.00 611.89 198.98 144.25
  Q 198.98 140.50 200.40 137.08"
/>
<path stroke="#4e555f" vector-effect="non-scaling-stroke" d="
  M 206.10 136.29
  C 203.33 138.27 202.92 143.16 202.92 146.25
  Q 203.00 613.03 203.00 1079.54
  Q 203.00 1080.02 203.48 1080.02
  L 209.43 1079.97
  Q 210.00 1079.97 210.00 1079.40
  Q 210.00 614.14 210.18 148.75
  C 210.18 144.73 210.06 138.91 206.90 136.32
  Q 206.51 136.00 206.10 136.29"
/>
<path stroke="#4e555f" vector-effect="non-scaling-stroke" d="
  M 72.89 1107.87
  A 30.99 30.99 0.0 0 0 41.90 1076.88
  A 30.99 30.99 0.0 0 0 10.91 1107.87
  A 30.99 30.99 0.0 0 0 41.90 1138.86
  A 30.99 30.99 0.0 0 0 72.89 1107.87"
/>
<path stroke="#4e555f" vector-effect="non-scaling-stroke" d="
  M 401.07 1107.88
  A 30.98 30.98 0.0 0 0 370.09 1076.90
  A 30.98 30.98 0.0 0 0 339.11 1107.88
  A 30.98 30.98 0.0 0 0 370.09 1138.86
  A 30.98 30.98 0.0 0 0 401.07 1107.88"
/>
<path stroke="#4e555f" vector-effect="non-scaling-stroke" d="
  M 77.10 1125.66
  Q 76.82 1126.26 77.10 1126.69
  A 0.71 0.70 73.2 0 0 77.69 1127.01
  L 333.99 1126.99
  Q 335.22 1126.99 334.80 1125.83
  C 331.61 1117.07 329.66 1109.05 331.67 1099.15
  C 332.28 1096.14 333.93 1092.93 334.89 1089.81
  Q 335.14 1089.00 334.30 1089.00
  L 77.56 1088.98
  A 0.61 0.61 0.0 0 0 77.01 1089.85
  Q 85.32 1107.75 77.10 1125.66"
/>
<path stroke="#4e555f" vector-effect="non-scaling-stroke" d="
  M 225.34 1136.28
  A 0.36 0.36 0.0 0 0 224.98 1135.92
  L 187.02 1135.92
  A 0.36 0.36 0.0 0 0 186.66 1136.28
  L 186.66 1141.10
  A 0.36 0.36 0.0 0 0 187.02 1141.46
  L 224.98 1141.46
  A 0.36 0.36 0.0 0 0 225.34 1141.10
  L 225.34 1136.28"
/>
<path stroke="#4e555f" vector-effect="non-scaling-stroke" d="
  M 225.33 1145.88
  A 0.34 0.34 0.0 0 0 224.99 1145.54
  L 186.99 1145.54
  A 0.34 0.34 0.0 0 0 186.65 1145.88
  L 186.65 1152.12
  A 0.34 0.34 0.0 0 0 186.99 1152.46
  L 224.99 1152.46
  A 0.34 0.34 0.0 0 0 225.33 1152.12
  L 225.33 1145.88"
/>
<path stroke="#4e555f" vector-effect="non-scaling-stroke" d="
  M 224.93 1164.48
  A 0.39 0.39 0.0 0 0 225.32 1164.09
  L 225.33 1156.93
  A 0.39 0.39 0.0 0 0 224.94 1156.54
  L 187.05 1156.55
  A 0.39 0.39 0.0 0 0 186.66 1156.94
  L 186.65 1164.02
  A 0.39 0.39 0.0 0 0 187.04 1164.41
  L 224.93 1164.48"
/>
<path stroke="#4e555f" vector-effect="non-scaling-stroke" d="
  M 225.33 1168.96
  A 0.41 0.41 0.0 0 0 224.92 1168.55
  L 187.06 1168.55
  A 0.41 0.41 0.0 0 0 186.65 1168.96
  L 186.65 1176.04
  A 0.41 0.41 0.0 0 0 187.06 1176.45
  L 224.92 1176.45
  A 0.41 0.41 0.0 0 0 225.33 1176.04
  L 225.33 1168.96"
/>
<path stroke="#4e555f" vector-effect="non-scaling-stroke" d="
  M 225.34 1180.95
  A 0.41 0.41 0.0 0 0 224.93 1180.54
  L 187.07 1180.54
  A 0.41 0.41 0.0 0 0 186.66 1180.95
  L 186.66 1188.05
  A 0.41 0.41 0.0 0 0 187.07 1188.46
  L 224.93 1188.46
  A 0.41 0.41 0.0 0 0 225.34 1188.05
  L 225.34 1180.95"
/>
<path stroke="#4e555f" vector-effect="non-scaling-stroke" d="
  M 225.33 1192.92
  A 0.38 0.38 0.0 0 0 224.95 1192.54
  L 187.05 1192.54
  A 0.38 0.38 0.0 0 0 186.67 1192.92
  L 186.67 1199.08
  A 0.38 0.38 0.0 0 0 187.05 1199.46
  L 224.95 1199.46
  A 0.38 0.38 0.0 0 0 225.33 1199.08
  L 225.33 1192.92"
/>
<path stroke="#4e555f" vector-effect="non-scaling-stroke" d="
  M 225.33 1203.90
  A 0.35 0.35 0.0 0 0 224.98 1203.55
  L 187.02 1203.55
  A 0.35 0.35 0.0 0 0 186.67 1203.90
  L 186.67 1211.10
  A 0.35 0.35 0.0 0 0 187.02 1211.45
  L 224.98 1211.45
  A 0.35 0.35 0.0 0 0 225.33 1211.10
  L 225.33 1203.90"
/>
<path stroke="#4e555f" vector-effect="non-scaling-stroke" d="
  M 225.33 1215.90
  A 0.35 0.35 0.0 0 0 224.98 1215.55
  L 187.02 1215.55
  A 0.35 0.35 0.0 0 0 186.67 1215.90
  L 186.67 1223.10
  A 0.35 0.35 0.0 0 0 187.02 1223.45
  L 224.98 1223.45
  A 0.35 0.35 0.0 0 0 225.33 1223.10
  L 225.33 1215.90"
/>
<path stroke="#4e555f" vector-effect="non-scaling-stroke" d="
  M 225.33 1227.91
  A 0.35 0.35 0.0 0 0 224.98 1227.56
  L 187.02 1227.56
  A 0.35 0.35 0.0 0 0 186.67 1227.91
  L 186.67 1235.11
  A 0.35 0.35 0.0 0 0 187.02 1235.46
  L 224.98 1235.46
  A 0.35 0.35 0.0 0 0 225.33 1235.11
  L 225.33 1227.91"
/>
<path stroke="#4e555f" vector-effect="non-scaling-stroke" d="
  M 225.33 1239.91
  A 0.37 0.37 0.0 0 0 224.96 1239.54
  L 187.04 1239.54
  A 0.37 0.37 0.0 0 0 186.67 1239.91
  L 186.67 1246.09
  A 0.37 0.37 0.0 0 0 187.04 1246.46
  L 224.96 1246.46
  A 0.37 0.37 0.0 0 0 225.33 1246.09
  L 225.33 1239.91"
/>
<path stroke="#4e555f" vector-effect="non-scaling-stroke" d="
  M 225.33 1250.90
  A 0.36 0.36 0.0 0 0 224.97 1250.54
  L 187.03 1250.54
  A 0.36 0.36 0.0 0 0 186.67 1250.90
  L 186.67 1258.10
  A 0.36 0.36 0.0 0 0 187.03 1258.46
  L 224.97 1258.46
  A 0.36 0.36 0.0 0 0 225.33 1258.10
  L 225.33 1250.90"
/>
<path stroke="#4e555f" vector-effect="non-scaling-stroke" d="
  M 225.33 1262.90
  A 0.36 0.36 0.0 0 0 224.97 1262.54
  L 187.03 1262.54
  A 0.36 0.36 0.0 0 0 186.67 1262.90
  L 186.67 1270.10
  A 0.36 0.36 0.0 0 0 187.03 1270.46
  L 224.97 1270.46
  A 0.36 0.36 0.0 0 0 225.33 1270.10
  L 225.33 1262.90"
/>
<path stroke="#4e555f" vector-effect="non-scaling-stroke" d="
  M 225.33 1274.92
  A 0.38 0.38 0.0 0 0 224.95 1274.54
  L 187.05 1274.54
  A 0.38 0.38 0.0 0 0 186.67 1274.92
  L 186.67 1281.08
  A 0.38 0.38 0.0 0 0 187.05 1281.46
  L 224.95 1281.46
  A 0.38 0.38 0.0 0 0 225.33 1281.08
  L 225.33 1274.92"
/>
<path stroke="#4e555f" vector-effect="non-scaling-stroke" d="
  M 225.33 1285.90
  A 0.36 0.36 0.0 0 0 224.97 1285.54
  L 187.03 1285.54
  A 0.36 0.36 0.0 0 0 186.67 1285.90
  L 186.67 1293.10
  A 0.36 0.36 0.0 0 0 187.03 1293.46
  L 224.97 1293.46
  A 0.36 0.36 0.0 0 0 225.33 1293.10
  L 225.33 1285.90"
/>
<path stroke="#4e555f" vector-effect="non-scaling-stroke" d="
  M 225.33 1297.90
  A 0.36 0.36 0.0 0 0 224.97 1297.54
  L 187.03 1297.54
  A 0.36 0.36 0.0 0 0 186.67 1297.90
  L 186.67 1305.10
  A 0.36 0.36 0.0 0 0 187.03 1305.46
  L 224.97 1305.46
  A 0.36 0.36 0.0 0 0 225.33 1305.10
  L 225.33 1297.90"
/>
<path stroke="#4e555f" vector-effect="non-scaling-stroke" d="
  M 225.33 1309.90
  A 0.36 0.36 0.0 0 0 224.97 1309.54
  L 187.03 1309.54
  A 0.36 0.36 0.0 0 0 186.67 1309.90
  L 186.67 1317.10
  A 0.36 0.36 0.0 0 0 187.03 1317.46
  L 224.97 1317.46
  A 0.36 0.36 0.0 0 0 225.33 1317.10
  L 225.33 1309.90"
/>
<path stroke="#4e555f" vector-effect="non-scaling-stroke" d="
  M 225.33 1321.89
  A 0.35 0.35 0.0 0 0 224.98 1321.54
  L 187.02 1321.54
  A 0.35 0.35 0.0 0 0 186.67 1321.89
  L 186.67 1328.11
  A 0.35 0.35 0.0 0 0 187.02 1328.46
  L 224.98 1328.46
  A 0.35 0.35 0.0 0 0 225.33 1328.11
  L 225.33 1321.89"
/>
<path stroke="#4e555f" vector-effect="non-scaling-stroke" d="
  M 225.34 1332.90
  A 0.36 0.36 0.0 0 0 224.98 1332.54
  L 187.02 1332.54
  A 0.36 0.36 0.0 0 0 186.66 1332.90
  L 186.66 1340.10
  A 0.36 0.36 0.0 0 0 187.02 1340.46
  L 224.98 1340.46
  A 0.36 0.36 0.0 0 0 225.34 1340.10
  L 225.34 1332.90"
/>
<path stroke="#4e555f" vector-effect="non-scaling-stroke" d="
  M 225.33 1344.96
  A 0.42 0.42 0.0 0 0 224.91 1344.54
  L 187.07 1344.54
  A 0.42 0.42 0.0 0 0 186.65 1344.96
  L 186.65 1352.92
  A 0.42 0.42 0.0 0 0 187.07 1353.34
  L 224.91 1353.34
  A 0.42 0.42 0.0 0 0 225.33 1352.92
  L 225.33 1344.96"
/>
<path stroke="#4e555f" vector-effect="non-scaling-stroke" d="
  M 156.54 1390.08
  C 154.65 1392.00 154.74 1395.72 154.77 1398.25
  Q 154.97 1414.95 155.02 1431.66
  C 155.03 1433.77 155.55 1435.13 156.95 1436.54
  Q 169.68 1449.32 182.47 1462.05
  Q 184.42 1463.99 188.00 1463.99
  Q 206.86 1464.03 225.25 1464.00
  A 5.41 5.39 22.4 0 0 229.07 1462.42
  Q 241.76 1449.76 254.85 1436.84
  Q 257.05 1434.66 257.04 1431.50
  Q 257.00 1412.14 257.02 1393.43
  A 4.85 4.85 0.0 0 0 255.60 1390.00
  Q 242.76 1377.08 229.50 1363.96
  C 227.86 1362.34 226.69 1362.00 224.50 1361.99
  Q 206.14 1361.97 187.78 1361.98
  C 185.37 1361.99 183.77 1362.54 182.17 1364.16
  Q 169.32 1377.08 156.54 1390.08"
/>
<path stroke="#4e555f" vector-effect="non-scaling-stroke" d="
  M 243.30 1412.70
  A 37.30 37.30 0.0 0 0 206.00 1375.40
  A 37.30 37.30 0.0 0 0 168.70 1412.70
  A 37.30 37.30 0.0 0 0 206.00 1450.00
  A 37.30 37.30 0.0 0 0 243.30 1412.70"
/>
<path stroke="#4e555f" vector-effect="non-scaling-stroke" d="
  M 239.08 1412.69
  A 33.09 33.09 0.0 0 0 205.99 1379.60
  A 33.09 33.09 0.0 0 0 172.90 1412.69
  A 33.09 33.09 0.0 0 0 205.99 1445.78
  A 33.09 33.09 0.0 0 0 239.08 1412.69"
/>
</g>
<path fill="#000000" d="
  M 233.00 1135.51
  L 233.00 1356.00
  A 1.99 1.95 22.9 0 0 233.58 1357.39
  Q 248.87 1372.58 263.60 1387.36
  C 264.99 1388.75 265.12 1390.16 265.13 1392.00
  Q 265.16 1413.00 265.12 1434.00
  C 265.12 1436.06 264.78 1437.38 263.26 1438.92
  Q 246.90 1455.38 230.60 1471.63
  Q 230.17 1472.06 229.57 1472.06
  L 182.81 1472.08
  A 2.26 2.24 67.4 0 1 181.22 1471.42
  L 148.12 1438.41
  A 3.62 3.62 0.0 0 1 147.06 1435.90
  Q 146.74 1413.11 147.03 1390.00
  Q 147.05 1388.59 148.44 1387.21
  Q 163.34 1372.37 177.77 1358.14
  A 4.23 4.22 -22.4 0 0 179.02 1355.14
  L 178.99 1136.00
  A 0.99 0.96 -90.0 0 0 178.03 1135.01
  Q 126.10 1134.98 74.50 1135.02
  C 72.20 1135.03 69.91 1134.99 67.81 1136.54
  C 65.31 1138.40 62.72 1140.44 60.10 1141.83
  C 39.70 1152.63 16.20 1143.26 6.29 1122.96
  C 3.86 1117.97 3.56 1110.34 3.81 1103.08
  C 4.30 1089.06 17.04 1076.54 29.13 1071.46
  Q 32.58 1070.02 36.84 1069.84
  C 49.71 1069.32 57.75 1071.05 67.56 1079.22
  C 69.47 1080.81 71.16 1081.01 73.50 1081.00
  Q 106.88 1080.93 140.25 1081.04
  Q 151.33 1081.08 155.29 1080.83
  Q 156.00 1080.78 156.00 1080.07
  L 156.00 193.58
  Q 156.00 191.65 156.47 189.77
  Q 176.40 110.09 197.00 30.00
  Q 199.01 22.18 203.78 4.98
  C 204.76 1.46 208.16 1.20 209.16 4.85
  C 216.75 32.37 223.73 60.09 230.74 87.76
  Q 243.37 137.63 255.96 187.51
  C 256.57 189.96 257.00 192.24 257.00 194.87
  Q 257.00 637.40 257.00 1079.73
  Q 257.00 1080.96 258.23 1080.96
  L 340.21 1081.06
  A 5.46 5.45 26.6 0 0 343.47 1079.98
  Q 345.70 1078.32 348.47 1076.25
  C 356.43 1070.28 364.72 1069.40 374.90 1069.81
  C 390.35 1070.44 407.59 1087.68 408.19 1103.14
  Q 408.47 1110.43 407.78 1115.51
  C 405.99 1128.78 392.95 1141.65 380.51 1145.00
  C 367.23 1148.57 353.63 1144.83 343.47 1135.79
  Q 343.00 1135.38 341.23 1135.30
  Q 329.90 1134.83 318.57 1134.90
  C 290.21 1135.09 261.85 1134.95 233.48 1135.03
  Q 233.00 1135.03 233.00 1135.51
  Z
  M 200.40 137.08
  C 201.82 133.67 205.62 130.56 208.99 132.79
  C 213.29 135.64 214.00 139.81 214.00 145.17
  Q 214.00 612.36 214.00 1079.48
  Q 214.00 1080.01 214.53 1080.01
  L 248.25 1079.99
  A 0.76 0.76 0.0 0 0 249.01 1079.23
  Q 249.00 637.75 248.96 196.25
  C 248.96 187.10 245.51 178.14 243.35 169.48
  Q 225.28 96.75 206.86 25.00
  Q 206.38 23.13 205.94 25.01
  Q 202.49 39.66 198.60 54.35
  C 190.07 86.64 182.20 119.14 174.10 151.54
  C 171.82 160.69 167.78 175.09 165.11 187.02
  Q 164.01 191.95 164.01 197.00
  Q 164.01 630.37 163.88 1063.75
  Q 163.88 1071.65 164.07 1079.39
  A 0.59 0.59 0.0 0 0 164.66 1079.96
  L 198.48 1080.02
  A 0.53 0.53 0.0 0 0 199.01 1079.49
  Q 199.00 611.89 198.98 144.25
  Q 198.98 140.50 200.40 137.08
  Z
  M 206.10 136.29
  C 203.33 138.27 202.92 143.16 202.92 146.25
  Q 203.00 613.03 203.00 1079.54
  Q 203.00 1080.02 203.48 1080.02
  L 209.43 1079.97
  Q 210.00 1079.97 210.00 1079.40
  Q 210.00 614.14 210.18 148.75
  C 210.18 144.73 210.06 138.91 206.90 136.32
  Q 206.51 136.00 206.10 136.29
  Z
  M 72.89 1107.87
  A 30.99 30.99 0.0 0 0 41.90 1076.88
  A 30.99 30.99 0.0 0 0 10.91 1107.87
  A 30.99 30.99 0.0 0 0 41.90 1138.86
  A 30.99 30.99 0.0 0 0 72.89 1107.87
  Z
  M 401.07 1107.88
  A 30.98 30.98 0.0 0 0 370.09 1076.90
  A 30.98 30.98 0.0 0 0 339.11 1107.88
  A 30.98 30.98 0.0 0 0 370.09 1138.86
  A 30.98 30.98 0.0 0 0 401.07 1107.88
  Z
  M 77.10 1125.66
  Q 76.82 1126.26 77.10 1126.69
  A 0.71 0.70 73.2 0 0 77.69 1127.01
  L 333.99 1126.99
  Q 335.22 1126.99 334.80 1125.83
  C 331.61 1117.07 329.66 1109.05 331.67 1099.15
  C 332.28 1096.14 333.93 1092.93 334.89 1089.81
  Q 335.14 1089.00 334.30 1089.00
  L 77.56 1088.98
  A 0.61 0.61 0.0 0 0 77.01 1089.85
  Q 85.32 1107.75 77.10 1125.66
  Z
  M 225.34 1136.28
  A 0.36 0.36 0.0 0 0 224.98 1135.92
  L 187.02 1135.92
  A 0.36 0.36 0.0 0 0 186.66 1136.28
  L 186.66 1141.10
  A 0.36 0.36 0.0 0 0 187.02 1141.46
  L 224.98 1141.46
  A 0.36 0.36 0.0 0 0 225.34 1141.10
  L 225.34 1136.28
  Z
  M 225.33 1145.88
  A 0.34 0.34 0.0 0 0 224.99 1145.54
  L 186.99 1145.54
  A 0.34 0.34 0.0 0 0 186.65 1145.88
  L 186.65 1152.12
  A 0.34 0.34 0.0 0 0 186.99 1152.46
  L 224.99 1152.46
  A 0.34 0.34 0.0 0 0 225.33 1152.12
  L 225.33 1145.88
  Z
  M 224.93 1164.48
  A 0.39 0.39 0.0 0 0 225.32 1164.09
  L 225.33 1156.93
  A 0.39 0.39 0.0 0 0 224.94 1156.54
  L 187.05 1156.55
  A 0.39 0.39 0.0 0 0 186.66 1156.94
  L 186.65 1164.02
  A 0.39 0.39 0.0 0 0 187.04 1164.41
  L 224.93 1164.48
  Z
  M 225.33 1168.96
  A 0.41 0.41 0.0 0 0 224.92 1168.55
  L 187.06 1168.55
  A 0.41 0.41 0.0 0 0 186.65 1168.96
  L 186.65 1176.04
  A 0.41 0.41 0.0 0 0 187.06 1176.45
  L 224.92 1176.45
  A 0.41 0.41 0.0 0 0 225.33 1176.04
  L 225.33 1168.96
  Z
  M 225.34 1180.95
  A 0.41 0.41 0.0 0 0 224.93 1180.54
  L 187.07 1180.54
  A 0.41 0.41 0.0 0 0 186.66 1180.95
  L 186.66 1188.05
  A 0.41 0.41 0.0 0 0 187.07 1188.46
  L 224.93 1188.46
  A 0.41 0.41 0.0 0 0 225.34 1188.05
  L 225.34 1180.95
  Z
  M 225.33 1192.92
  A 0.38 0.38 0.0 0 0 224.95 1192.54
  L 187.05 1192.54
  A 0.38 0.38 0.0 0 0 186.67 1192.92
  L 186.67 1199.08
  A 0.38 0.38 0.0 0 0 187.05 1199.46
  L 224.95 1199.46
  A 0.38 0.38 0.0 0 0 225.33 1199.08
  L 225.33 1192.92
  Z
  M 225.33 1203.90
  A 0.35 0.35 0.0 0 0 224.98 1203.55
  L 187.02 1203.55
  A 0.35 0.35 0.0 0 0 186.67 1203.90
  L 186.67 1211.10
  A 0.35 0.35 0.0 0 0 187.02 1211.45
  L 224.98 1211.45
  A 0.35 0.35 0.0 0 0 225.33 1211.10
  L 225.33 1203.90
  Z
  M 225.33 1215.90
  A 0.35 0.35 0.0 0 0 224.98 1215.55
  L 187.02 1215.55
  A 0.35 0.35 0.0 0 0 186.67 1215.90
  L 186.67 1223.10
  A 0.35 0.35 0.0 0 0 187.02 1223.45
  L 224.98 1223.45
  A 0.35 0.35 0.0 0 0 225.33 1223.10
  L 225.33 1215.90
  Z
  M 225.33 1227.91
  A 0.35 0.35 0.0 0 0 224.98 1227.56
  L 187.02 1227.56
  A 0.35 0.35 0.0 0 0 186.67 1227.91
  L 186.67 1235.11
  A 0.35 0.35 0.0 0 0 187.02 1235.46
  L 224.98 1235.46
  A 0.35 0.35 0.0 0 0 225.33 1235.11
  L 225.33 1227.91
  Z
  M 225.33 1239.91
  A 0.37 0.37 0.0 0 0 224.96 1239.54
  L 187.04 1239.54
  A 0.37 0.37 0.0 0 0 186.67 1239.91
  L 186.67 1246.09
  A 0.37 0.37 0.0 0 0 187.04 1246.46
  L 224.96 1246.46
  A 0.37 0.37 0.0 0 0 225.33 1246.09
  L 225.33 1239.91
  Z
  M 225.33 1250.90
  A 0.36 0.36 0.0 0 0 224.97 1250.54
  L 187.03 1250.54
  A 0.36 0.36 0.0 0 0 186.67 1250.90
  L 186.67 1258.10
  A 0.36 0.36 0.0 0 0 187.03 1258.46
  L 224.97 1258.46
  A 0.36 0.36 0.0 0 0 225.33 1258.10
  L 225.33 1250.90
  Z
  M 225.33 1262.90
  A 0.36 0.36 0.0 0 0 224.97 1262.54
  L 187.03 1262.54
  A 0.36 0.36 0.0 0 0 186.67 1262.90
  L 186.67 1270.10
  A 0.36 0.36 0.0 0 0 187.03 1270.46
  L 224.97 1270.46
  A 0.36 0.36 0.0 0 0 225.33 1270.10
  L 225.33 1262.90
  Z
  M 225.33 1274.92
  A 0.38 0.38 0.0 0 0 224.95 1274.54
  L 187.05 1274.54
  A 0.38 0.38 0.0 0 0 186.67 1274.92
  L 186.67 1281.08
  A 0.38 0.38 0.0 0 0 187.05 1281.46
  L 224.95 1281.46
  A 0.38 0.38 0.0 0 0 225.33 1281.08
  L 225.33 1274.92
  Z
  M 225.33 1285.90
  A 0.36 0.36 0.0 0 0 224.97 1285.54
  L 187.03 1285.54
  A 0.36 0.36 0.0 0 0 186.67 1285.90
  L 186.67 1293.10
  A 0.36 0.36 0.0 0 0 187.03 1293.46
  L 224.97 1293.46
  A 0.36 0.36 0.0 0 0 225.33 1293.10
  L 225.33 1285.90
  Z
  M 225.33 1297.90
  A 0.36 0.36 0.0 0 0 224.97 1297.54
  L 187.03 1297.54
  A 0.36 0.36 0.0 0 0 186.67 1297.90
  L 186.67 1305.10
  A 0.36 0.36 0.0 0 0 187.03 1305.46
  L 224.97 1305.46
  A 0.36 0.36 0.0 0 0 225.33 1305.10
  L 225.33 1297.90
  Z
  M 225.33 1309.90
  A 0.36 0.36 0.0 0 0 224.97 1309.54
  L 187.03 1309.54
  A 0.36 0.36 0.0 0 0 186.67 1309.90
  L 186.67 1317.10
  A 0.36 0.36 0.0 0 0 187.03 1317.46
  L 224.97 1317.46
  A 0.36 0.36 0.0 0 0 225.33 1317.10
  L 225.33 1309.90
  Z
  M 225.33 1321.89
  A 0.35 0.35 0.0 0 0 224.98 1321.54
  L 187.02 1321.54
  A 0.35 0.35 0.0 0 0 186.67 1321.89
  L 186.67 1328.11
  A 0.35 0.35 0.0 0 0 187.02 1328.46
  L 224.98 1328.46
  A 0.35 0.35 0.0 0 0 225.33 1328.11
  L 225.33 1321.89
  Z
  M 225.34 1332.90
  A 0.36 0.36 0.0 0 0 224.98 1332.54
  L 187.02 1332.54
  A 0.36 0.36 0.0 0 0 186.66 1332.90
  L 186.66 1340.10
  A 0.36 0.36 0.0 0 0 187.02 1340.46
  L 224.98 1340.46
  A 0.36 0.36 0.0 0 0 225.34 1340.10
  L 225.34 1332.90
  Z
  M 225.33 1344.96
  A 0.42 0.42 0.0 0 0 224.91 1344.54
  L 187.07 1344.54
  A 0.42 0.42 0.0 0 0 186.65 1344.96
  L 186.65 1352.92
  A 0.42 0.42 0.0 0 0 187.07 1353.34
  L 224.91 1353.34
  A 0.42 0.42 0.0 0 0 225.33 1352.92
  L 225.33 1344.96
  Z
  M 156.54 1390.08
  C 154.65 1392.00 154.74 1395.72 154.77 1398.25
  Q 154.97 1414.95 155.02 1431.66
  C 155.03 1433.77 155.55 1435.13 156.95 1436.54
  Q 169.68 1449.32 182.47 1462.05
  Q 184.42 1463.99 188.00 1463.99
  Q 206.86 1464.03 225.25 1464.00
  A 5.41 5.39 22.4 0 0 229.07 1462.42
  Q 241.76 1449.76 254.85 1436.84
  Q 257.05 1434.66 257.04 1431.50
  Q 257.00 1412.14 257.02 1393.43
  A 4.85 4.85 0.0 0 0 255.60 1390.00
  Q 242.76 1377.08 229.50 1363.96
  C 227.86 1362.34 226.69 1362.00 224.50 1361.99
  Q 206.14 1361.97 187.78 1361.98
  C 185.37 1361.99 183.77 1362.54 182.17 1364.16
  Q 169.32 1377.08 156.54 1390.08
  Z"
/>
<path fill="#9caabd" d="
  M 200.40 137.08
  Q 198.98 140.50 198.98 144.25
  Q 199.00 611.89 199.01 1079.49
  A 0.53 0.53 0.0 0 1 198.48 1080.02
  L 164.66 1079.96
  A 0.59 0.59 0.0 0 1 164.07 1079.39
  Q 163.88 1071.65 163.88 1063.75
  Q 164.01 630.37 164.01 197.00
  Q 164.01 191.95 165.11 187.02
  C 167.78 175.09 171.82 160.69 174.10 151.54
  C 182.20 119.14 190.07 86.64 198.60 54.35
  Q 202.49 39.66 205.94 25.01
  Q 206.38 23.13 206.86 25.00
  Q 225.28 96.75 243.35 169.48
  C 245.51 178.14 248.96 187.10 248.96 196.25
  Q 249.00 637.75 249.01 1079.23
  A 0.76 0.76 0.0 0 1 248.25 1079.99
  L 214.53 1080.01
  Q 214.00 1080.01 214.00 1079.48
  Q 214.00 612.36 214.00 145.17
  C 214.00 139.81 213.29 135.64 208.99 132.79
  C 205.62 130.56 201.82 133.67 200.40 137.08
  Z"
/>
<path fill="#9caabd" d="
  M 202.92 146.25
  C 202.92 143.16 203.33 138.27 206.10 136.29
  Q 206.51 136.00 206.90 136.32
  C 210.06 138.91 210.18 144.73 210.18 148.75
  Q 210.00 614.14 210.00 1079.40
  Q 210.00 1079.97 209.43 1079.97
  L 203.48 1080.02
  Q 203.00 1080.02 203.00 1079.54
  Q 203.00 613.03 202.92 146.25
  Z"
/>
<circle fill="#9caabd" cx="41.90" cy="1107.87" r="30.99"/>
<circle fill="#9caabd" cx="370.09" cy="1107.88" r="30.98"/>
<path fill="#9caabd" d="
  M 77.10 1125.66
  Q 85.32 1107.75 77.01 1089.85
  A 0.61 0.61 0.0 0 1 77.56 1088.98
  L 334.30 1089.00
  Q 335.14 1089.00 334.89 1089.81
  C 333.93 1092.93 332.28 1096.14 331.67 1099.15
  C 329.66 1109.05 331.61 1117.07 334.80 1125.83
  Q 335.22 1126.99 333.99 1126.99
  L 77.69 1127.01
  A 0.71 0.70 73.2 0 1 77.10 1126.69
  Q 76.82 1126.26 77.10 1125.66
  Z"
/>
<rect fill="#9caabd" x="186.66" y="1135.92" width="38.68" height="5.54" rx="0.36"/>
<rect fill="#9caabd" x="186.65" y="1145.54" width="38.68" height="6.92" rx="0.34"/>
<path fill="#9caabd" d="
  M 224.93 1164.48
  L 187.04 1164.41
  A 0.39 0.39 0.0 0 1 186.65 1164.02
  L 186.66 1156.94
  A 0.39 0.39 0.0 0 1 187.05 1156.55
  L 224.94 1156.54
  A 0.39 0.39 0.0 0 1 225.33 1156.93
  L 225.32 1164.09
  A 0.39 0.39 0.0 0 1 224.93 1164.48
  Z"
/>
<rect fill="#9caabd" x="186.65" y="1168.55" width="38.68" height="7.90" rx="0.41"/>
<rect fill="#9caabd" x="186.66" y="1180.54" width="38.68" height="7.92" rx="0.41"/>
<rect fill="#9caabd" x="186.67" y="1192.54" width="38.66" height="6.92" rx="0.38"/>
<rect fill="#9caabd" x="186.67" y="1203.55" width="38.66" height="7.90" rx="0.35"/>
<rect fill="#9caabd" x="186.67" y="1215.55" width="38.66" height="7.90" rx="0.35"/>
<rect fill="#9caabd" x="186.67" y="1227.56" width="38.66" height="7.90" rx="0.35"/>
<rect fill="#9caabd" x="186.67" y="1239.54" width="38.66" height="6.92" rx="0.37"/>
<rect fill="#9caabd" x="186.67" y="1250.54" width="38.66" height="7.92" rx="0.36"/>
<rect fill="#9caabd" x="186.67" y="1262.54" width="38.66" height="7.92" rx="0.36"/>
<rect fill="#9caabd" x="186.67" y="1274.54" width="38.66" height="6.92" rx="0.38"/>
<rect fill="#9caabd" x="186.67" y="1285.54" width="38.66" height="7.92" rx="0.36"/>
<rect fill="#9caabd" x="186.67" y="1297.54" width="38.66" height="7.92" rx="0.36"/>
<rect fill="#9caabd" x="186.67" y="1309.54" width="38.66" height="7.92" rx="0.36"/>
<rect fill="#9caabd" x="186.67" y="1321.54" width="38.66" height="6.92" rx="0.35"/>
<rect fill="#9caabd" x="186.66" y="1332.54" width="38.68" height="7.92" rx="0.36"/>
<rect fill="#9caabd" x="186.65" y="1344.54" width="38.68" height="8.80" rx="0.42"/>
<path fill="#9caabd" d="
  M 154.77 1398.25
  C 154.74 1395.72 154.65 1392.00 156.54 1390.08
  Q 169.32 1377.08 182.17 1364.16
  C 183.77 1362.54 185.37 1361.99 187.78 1361.98
  Q 206.14 1361.97 224.50 1361.99
  C 226.69 1362.00 227.86 1362.34 229.50 1363.96
  Q 242.76 1377.08 255.60 1390.00
  A 4.85 4.85 0.0 0 1 257.02 1393.43
  Q 257.00 1412.14 257.04 1431.50
  Q 257.05 1434.66 254.85 1436.84
  Q 241.76 1449.76 229.07 1462.42
  A 5.41 5.39 22.4 0 1 225.25 1464.00
  Q 206.86 1464.03 188.00 1463.99
  Q 184.42 1463.99 182.47 1462.05
  Q 169.68 1449.32 156.95 1436.54
  C 155.55 1435.13 155.03 1433.77 155.02 1431.66
  Q 154.97 1414.95 154.77 1398.25
  Z
  M 243.30 1412.70
  A 37.30 37.30 0.0 0 0 206.00 1375.40
  A 37.30 37.30 0.0 0 0 168.70 1412.70
  A 37.30 37.30 0.0 0 0 206.00 1450.00
  A 37.30 37.30 0.0 0 0 243.30 1412.70
  Z"
/>
<path fill="#000000" d="
  M 243.30 1412.70
  A 37.30 37.30 0.0 0 1 206.00 1450.00
  A 37.30 37.30 0.0 0 1 168.70 1412.70
  A 37.30 37.30 0.0 0 1 206.00 1375.40
  A 37.30 37.30 0.0 0 1 243.30 1412.70
  Z
  M 239.08 1412.69
  A 33.09 33.09 0.0 0 0 205.99 1379.60
  A 33.09 33.09 0.0 0 0 172.90 1412.69
  A 33.09 33.09 0.0 0 0 205.99 1445.78
  A 33.09 33.09 0.0 0 0 239.08 1412.69
  Z"
/>
<circle fill="#9caabd" cx="205.99" cy="1412.69" r="33.09"/>
</svg>
