<?xml version="1.0" encoding="UTF-8" standalone="no"?>
<!DOCTYPE svg PUBLIC "-//W3C//DTD SVG 1.1//EN" "http://www.w3.org/Graphics/SVG/1.1/DTD/svg11.dtd">
<svg xmlns="http://www.w3.org/2000/svg" version="1.1" viewBox="0.00 0.00 599.00 1462.00">
<path stroke="#3e2816" stroke-width="2.00" fill="none" stroke-linecap="butt" vector-effect="non-scaling-stroke" d="
  M 268.36 412.96
  C 267.10 414.70 265.17 416.31 264.04 417.91
  C 254.34 431.68 257.34 447.77 268.59 459.41
  Q 270.02 460.90 270.02 462.50
  Q 269.98 470.63 270.06 478.75
  C 270.10 481.91 270.83 485.23 270.88 488.09
  C 271.02 495.16 270.48 502.76 271.28 509.74
  C 272.16 517.43 272.05 525.03 272.04 532.75
  C 272.03 535.84 272.81 539.37 272.88 542.43
  C 273.04 550.33 272.51 558.44 273.68 566.25
  C 274.67 572.86 274.03 580.73 274.12 587.50
  C 274.16 590.44 274.77 593.48 274.81 596.18
  C 275.01 611.07 275.66 620.56 275.96 632.08
  C 276.29 644.50 277.26 656.29 276.98 668.46
  C 276.91 671.52 277.98 674.38 277.98 677.44
  Q 277.97 691.91 278.07 696.95
  C 278.11 698.90 278.81 701.03 278.85 703.03
  Q 279.06 712.92 279.04 722.81
  C 279.04 725.56 279.82 728.25 279.89 731.01
  C 280.07 738.37 279.90 745.44 280.45 752.98
  Q 281.30 764.44 281.01 775.95
  C 280.93 778.92 281.96 781.83 281.97 784.95
  C 282.00 792.56 281.74 800.17 282.59 807.75
  C 283.56 816.46 283.10 826.03 282.95 834.85
  A 2.30 2.29 -8.9 0 1 281.39 836.98
  Q 279.94 837.47 278.84 836.14
  Q 270.67 826.22 262.09 816.42
  Q 261.13 815.32 260.14 816.39
  Q 253.99 823.03 245.71 826.62
  A 1.13 1.12 -24.1 0 0 245.13 828.13
  C 249.96 838.55 254.70 849.55 259.64 859.46
  Q 263.94 868.07 268.31 876.65
  C 270.59 881.10 276.98 890.02 276.99 895.50
  Q 277.00 915.47 277.00 935.45
  C 277.00 936.76 278.00 937.52 278.00 939.06
  Q 278.00 1028.53 278.00 1118.00
  C 278.00 1120.81 278.74 1123.43 278.81 1125.82
  Q 278.86 1127.66 278.87 1129.50
  Q 279.00 1217.38 278.95 1305.25
  C 278.95 1310.42 279.97 1315.55 279.97 1320.75
  Q 279.98 1350.25 280.08 1379.75
  Q 280.09 1382.19 281.28 1384.24
  Q 295.85 1409.16 313.60 1431.91
  Q 317.05 1436.33 320.79 1440.52
  C 321.78 1441.64 322.75 1443.60 324.35 1444.76
  Q 324.90 1445.16 324.94 1444.47
  Q 325.05 1442.55 325.05 1439.50
  Q 325.00 1395.13 325.00 1350.75
  C 325.00 1344.51 325.97 1338.13 325.98 1333.06
  Q 326.02 1294.03 326.00 1255.00
  C 326.00 1253.00 326.96 1250.82 326.97 1248.63
  Q 327.04 1237.23 326.98 1225.81
  C 326.95 1220.92 328.06 1216.31 328.01 1211.40
  Q 327.91 1201.92 328.15 1192.44
  C 328.21 1190.23 328.97 1187.56 328.97 1185.75
  Q 328.98 1171.84 329.07 1157.93
  C 329.09 1154.58 329.96 1151.37 329.97 1148.05
  Q 330.00 1135.40 330.05 1122.75
  C 330.05 1120.89 330.95 1118.78 330.97 1116.72
  C 331.05 1106.87 330.62 1097.08 331.68 1087.26
  C 332.48 1079.82 331.92 1072.02 332.15 1064.51
  C 332.21 1062.22 332.99 1059.49 332.98 1057.50
  Q 332.95 1047.21 333.10 1036.92
  C 333.14 1034.17 333.94 1031.56 333.96 1028.81
  Q 334.02 1019.41 334.03 1010.00
  C 334.03 1008.02 334.96 1005.97 334.97 1003.90
  Q 335.00 994.95 335.04 985.99
  C 335.05 983.08 335.96 980.34 335.96 977.38
  Q 335.98 964.56 336.11 961.00
  C 336.20 958.75 336.93 955.97 336.95 953.41
  C 337.01 946.82 336.65 939.91 337.58 933.39
  C 338.45 927.37 338.01 920.81 338.09 914.71
  C 338.11 912.74 338.97 910.55 338.98 908.40
  Q 338.99 900.72 339.04 893.04
  C 339.07 890.10 339.95 887.33 339.96 884.33
  C 339.97 879.39 339.63 873.68 340.40 868.82
  C 341.35 862.75 340.97 856.50 341.14 850.36
  C 341.19 848.25 342.01 845.70 341.99 844.00
  C 341.93 838.49 341.38 831.44 342.46 826.10
  C 343.29 822.02 342.90 818.17 342.99 814.08
  Q 343.05 810.75 343.67 804.45
  C 344.28 798.29 343.58 792.02 344.50 785.92
  C 345.28 780.73 345.01 775.37 345.16 770.13
  C 345.24 767.48 346.06 765.02 345.97 762.31
  C 345.71 754.92 346.94 747.82 346.93 740.50
  C 346.92 734.16 347.85 727.98 347.98 721.69
  Q 348.08 717.12 348.57 712.57
  C 349.12 707.54 348.78 702.35 349.31 697.24
  Q 349.85 692.11 349.91 687.71
  C 349.98 682.04 350.86 676.60 350.93 670.93
  C 351.00 665.29 351.85 659.81 351.98 654.21
  Q 352.08 649.89 352.58 645.60
  C 353.06 641.47 352.84 637.30 353.24 633.13
  C 353.83 626.81 353.86 621.51 354.47 615.73
  C 355.02 610.48 354.89 605.08 355.52 599.73
  C 356.03 595.31 355.97 591.09 356.33 586.73
  C 357.13 577.32 357.74 567.92 358.57 558.51
  C 358.81 555.85 358.72 553.80 360.28 551.44
  Q 362.09 548.70 363.98 546.01
  Q 376.37 528.34 377.95 506.96
  C 378.95 493.40 381.53 480.09 387.07 468.78
  C 392.56 457.57 397.13 449.72 404.71 441.57
  A 1.10 1.10 0.0 0 0 404.66 440.02
  Q 403.02 438.46 401.41 437.37
  Q 385.90 426.85 369.72 416.13
  A 1.09 1.09 0.0 0 0 368.14 416.55
  C 366.09 420.63 364.48 425.09 362.43 429.07
  Q 359.54 434.69 357.03 440.49
  C 354.97 445.24 349.28 446.20 344.86 444.42
  C 340.43 442.63 339.03 439.35 339.00 434.49
  Q 338.91 418.46 339.07 413.78
  C 339.13 411.81 339.98 409.14 339.98 406.71
  Q 340.01 379.11 340.01 351.50
  Q 340.01 346.93 340.36 343.47
  C 341.58 331.45 341.01 319.08 340.95 307.00
  C 340.92 302.62 341.80 297.90 341.92 293.99
  C 342.10 287.89 342.01 281.92 342.73 275.83
  Q 342.99 273.71 342.99 272.16
  Q 342.99 257.40 343.02 242.64
  C 343.03 239.96 343.98 237.47 343.96 234.75
  C 343.92 225.64 343.88 217.01 345.12 207.81
  Q 356.72 121.78 368.33 35.76
  Q 369.08 30.15 368.24 26.76
  C 366.45 19.58 360.87 13.72 353.48 12.29
  C 349.34 11.48 344.77 12.79 340.74 14.16
  Q 321.42 20.71 305.93 33.71
  Q 300.90 37.93 298.57 39.12
  C 295.00 40.93 287.72 43.01 283.99 41.45
  Q 270.23 35.72 264.97 33.81
  C 259.91 31.98 254.23 32.31 250.14 36.08
  C 244.27 41.48 245.53 47.49 248.24 54.82
  Q 256.51 77.23 264.18 99.86
  C 265.98 105.19 267.02 110.95 267.02 116.00
  Q 266.97 144.44 267.02 172.89
  C 267.03 179.77 267.92 187.74 267.94 195.25
  Q 268.00 223.24 268.02 251.23
  C 268.02 254.83 269.00 258.78 268.99 262.25
  Q 268.90 291.75 269.06 321.25
  Q 269.08 324.49 269.53 327.67
  Q 270.07 331.59 270.06 334.06
  Q 269.94 354.78 270.02 375.50
  C 270.02 377.00 269.00 378.93 269.00 380.87
  Q 269.00 395.87 269.00 410.95
  A 3.48 3.45 62.9 0 1 268.36 412.96"
/>
<path fill="#000000" d="
  M 277.91 825.12
  A 0.91 0.79 59.5 0 0 277.97 824.80
  C 278.16 813.30 277.21 801.46 276.95 790.42
  C 276.78 782.77 276.14 775.05 276.01 767.52
  C 275.73 750.27 274.24 732.16 274.02 714.49
  C 273.90 704.32 273.20 694.05 272.96 684.00
  C 272.77 675.98 272.15 667.91 272.02 660.00
  C 271.72 642.31 270.27 623.74 270.01 605.62
  Q 269.91 597.93 269.51 590.24
  C 269.05 581.40 269.04 571.35 268.46 561.91
  C 267.86 552.16 267.94 542.62 267.38 532.97
  C 266.92 524.85 267.00 516.37 266.53 508.06
  Q 266.07 499.95 266.00 494.41
  C 265.86 483.34 265.05 475.82 264.95 465.49
  Q 264.91 462.07 262.48 459.27
  C 250.53 445.52 250.61 425.67 262.75 411.98
  C 263.91 410.67 264.47 409.73 264.48 407.85
  Q 264.73 366.43 264.17 325.01
  C 263.78 295.33 263.95 265.67 263.33 235.99
  C 262.43 193.58 262.40 151.11 261.47 108.71
  A 13.44 13.36 34.9 0 0 260.74 104.66
  Q 252.69 81.41 243.96 57.77
  C 241.22 50.36 239.62 40.77 245.34 34.37
  Q 250.94 28.12 258.80 27.77
  Q 262.20 27.62 267.41 29.58
  Q 277.82 33.47 280.94 34.83
  Q 291.43 39.38 300.15 32.15
  C 306.98 26.48 314.00 21.22 321.88 17.18
  Q 330.00 13.02 338.53 9.79
  Q 343.35 7.97 347.22 7.66
  Q 351.85 7.29 356.26 8.00
  C 362.91 9.06 369.35 17.28 371.92 22.89
  C 373.54 26.41 373.41 30.30 372.98 34.00
  C 366.44 90.47 357.81 151.00 349.95 209.49
  Q 349.09 215.89 348.97 220.43
  C 348.72 229.79 348.18 239.13 348.02 248.50
  C 347.81 261.21 347.13 273.71 346.99 286.33
  C 346.64 316.38 345.10 346.49 344.98 376.50
  C 344.91 395.26 344.03 414.01 344.27 432.82
  C 344.31 435.84 344.93 440.60 349.16 440.10
  A 1.48 1.46 18.8 0 0 350.03 439.68
  Q 352.54 437.23 353.81 434.76
  C 358.01 426.65 361.97 418.42 366.47 410.47
  A 1.24 1.24 0.0 0 1 368.11 409.97
  Q 371.50 411.67 374.60 413.63
  Q 393.50 425.63 411.41 438.95
  A 0.80 0.80 0.0 0 1 411.59 440.04
  Q 408.52 444.46 405.10 448.83
  Q 391.37 466.34 385.80 487.61
  C 383.61 495.95 382.92 506.71 381.69 515.49
  C 379.84 528.64 373.02 542.04 365.35 552.68
  C 362.22 557.03 363.18 565.23 362.60 570.36
  Q 362.22 573.75 362.05 577.15
  C 361.80 582.08 361.12 587.33 360.98 592.44
  C 360.71 602.03 359.29 611.70 358.99 621.27
  C 358.68 631.66 357.30 642.11 356.99 652.46
  C 356.83 657.97 356.15 663.35 355.99 668.83
  C 355.83 674.44 355.14 679.94 354.99 685.54
  C 354.84 691.30 354.15 696.91 353.99 702.64
  C 353.84 708.57 353.15 714.37 353.00 720.28
  C 352.84 726.38 352.15 732.33 351.99 738.39
  C 351.83 744.67 351.15 750.79 350.99 757.02
  C 350.83 763.38 350.15 769.64 349.99 775.98
  C 349.84 782.55 349.15 788.97 348.99 795.50
  C 348.83 802.20 348.14 808.81 347.99 815.49
  C 347.83 822.31 347.15 829.03 346.99 835.83
  C 346.83 842.85 346.15 849.73 345.99 856.72
  C 345.83 863.96 345.15 871.05 344.99 878.25
  C 344.83 885.60 344.15 892.89 344.00 900.25
  C 343.69 915.61 342.30 931.04 341.99 946.36
  C 341.83 954.39 341.14 962.35 340.99 970.38
  C 340.84 978.66 340.15 986.80 339.99 995.04
  C 339.83 1003.58 339.15 1011.98 339.00 1020.48
  C 338.84 1029.39 338.15 1038.14 337.99 1047.00
  C 337.83 1056.31 337.14 1065.43 336.99 1074.67
  C 336.83 1084.47 336.15 1094.06 335.99 1103.78
  C 335.66 1124.80 334.29 1145.95 333.99 1166.86
  C 333.83 1178.38 333.15 1189.64 332.99 1201.05
  Q 332.86 1210.26 332.52 1218.45
  C 331.97 1231.80 331.96 1245.70 331.55 1258.50
  C 330.97 1276.35 331.11 1294.58 330.80 1312.00
  Q 329.95 1358.75 330.00 1405.50
  C 330.02 1421.08 329.41 1436.50 328.99 1452.00
  Q 328.95 1453.57 328.41 1453.98
  Q 327.22 1454.88 326.51 1454.16
  Q 318.87 1446.44 312.59 1438.40
  Q 291.64 1411.53 276.51 1386.26
  Q 275.09 1383.88 275.08 1380.00
  C 275.04 1333.16 274.01 1286.32 274.01 1239.49
  Q 274.00 1164.62 273.13 1089.75
  Q 273.01 1079.70 273.01 1069.74
  Q 273.02 983.24 272.06 896.75
  C 272.05 895.46 271.39 893.00 270.65 891.55
  C 259.82 870.21 248.59 848.75 239.43 826.82
  A 2.04 2.04 0.0 0 1 240.36 824.22
  Q 250.71 818.80 258.71 811.24
  Q 259.26 810.72 261.32 809.41
  Q 261.74 809.15 262.11 809.49
  C 267.35 814.35 271.58 820.31 276.45 825.56
  Q 277.37 826.55 277.91 825.12
  Z
  M 268.36 412.96
  C 267.10 414.70 265.17 416.31 264.04 417.91
  C 254.34 431.68 257.34 447.77 268.59 459.41
  Q 270.02 460.90 270.02 462.50
  Q 269.98 470.63 270.06 478.75
  C 270.10 481.91 270.83 485.23 270.88 488.09
  C 271.02 495.16 270.48 502.76 271.28 509.74
  C 272.16 517.43 272.05 525.03 272.04 532.75
  C 272.03 535.84 272.81 539.37 272.88 542.43
  C 273.04 550.33 272.51 558.44 273.68 566.25
  C 274.67 572.86 274.03 580.73 274.12 587.50
  C 274.16 590.44 274.77 593.48 274.81 596.18
  C 275.01 611.07 275.66 620.56 275.96 632.08
  C 276.29 644.50 277.26 656.29 276.98 668.46
  C 276.91 671.52 277.98 674.38 277.98 677.44
  Q 277.97 691.91 278.07 696.95
  C 278.11 698.90 278.81 701.03 278.85 703.03
  Q 279.06 712.92 279.04 722.81
  C 279.04 725.56 279.82 728.25 279.89 731.01
  C 280.07 738.37 279.90 745.44 280.45 752.98
  Q 281.30 764.44 281.01 775.95
  C 280.93 778.92 281.96 781.83 281.97 784.95
  C 282.00 792.56 281.74 800.17 282.59 807.75
  C 283.56 816.46 283.10 826.03 282.95 834.85
  A 2.30 2.29 -8.9 0 1 281.39 836.98
  Q 279.94 837.47 278.84 836.14
  Q 270.67 826.22 262.09 816.42
  Q 261.13 815.32 260.14 816.39
  Q 253.99 823.03 245.71 826.62
  A 1.13 1.12 -24.1 0 0 245.13 828.13
  C 249.96 838.55 254.70 849.55 259.64 859.46
  Q 263.94 868.07 268.31 876.65
  C 270.59 881.10 276.98 890.02 276.99 895.50
  Q 277.00 915.47 277.00 935.45
  C 277.00 936.76 278.00 937.52 278.00 939.06
  Q 278.00 1028.53 278.00 1118.00
  C 278.00 1120.81 278.74 1123.43 278.81 1125.82
  Q 278.86 1127.66 278.87 1129.50
  Q 279.00 1217.38 278.95 1305.25
  C 278.95 1310.42 279.97 1315.55 279.97 1320.75
  Q 279.98 1350.25 280.08 1379.75
  Q 280.09 1382.19 281.28 1384.24
  Q 295.85 1409.16 313.60 1431.91
  Q 317.05 1436.33 320.79 1440.52
  C 321.78 1441.64 322.75 1443.60 324.35 1444.76
  Q 324.90 1445.16 324.94 1444.47
  Q 325.05 1442.55 325.05 1439.50
  Q 325.00 1395.13 325.00 1350.75
  C 325.00 1344.51 325.97 1338.13 325.98 1333.06
  Q 326.02 1294.03 326.00 1255.00
  C 326.00 1253.00 326.96 1250.82 326.97 1248.63
  Q 327.04 1237.23 326.98 1225.81
  C 326.95 1220.92 328.06 1216.31 328.01 1211.40
  Q 327.91 1201.92 328.15 1192.44
  C 328.21 1190.23 328.97 1187.56 328.97 1185.75
  Q 328.98 1171.84 329.07 1157.93
  C 329.09 1154.58 329.96 1151.37 329.97 1148.05
  Q 330.00 1135.40 330.05 1122.75
  C 330.05 1120.89 330.95 1118.78 330.97 1116.72
  C 331.05 1106.87 330.62 1097.08 331.68 1087.26
  C 332.48 1079.82 331.92 1072.02 332.15 1064.51
  C 332.21 1062.22 332.99 1059.49 332.98 1057.50
  Q 332.95 1047.21 333.10 1036.92
  C 333.14 1034.17 333.94 1031.56 333.96 1028.81
  Q 334.02 1019.41 334.03 1010.00
  C 334.03 1008.02 334.96 1005.97 334.97 1003.90
  Q 335.00 994.95 335.04 985.99
  C 335.05 983.08 335.96 980.34 335.96 977.38
  Q 335.98 964.56 336.11 961.00
  C 336.20 958.75 336.93 955.97 336.95 953.41
  C 337.01 946.82 336.65 939.91 337.58 933.39
  C 338.45 927.37 338.01 920.81 338.09 914.71
  C 338.11 912.74 338.97 910.55 338.98 908.40
  Q 338.99 900.72 339.04 893.04
  C 339.07 890.10 339.95 887.33 339.96 884.33
  C 339.97 879.39 339.63 873.68 340.40 868.82
  C 341.35 862.75 340.97 856.50 341.14 850.36
  C 341.19 848.25 342.01 845.70 341.99 844.00
  C 341.93 838.49 341.38 831.44 342.46 826.10
  C 343.29 822.02 342.90 818.17 342.99 814.08
  Q 343.05 810.75 343.67 804.45
  C 344.28 798.29 343.58 792.02 344.50 785.92
  C 345.28 780.73 345.01 775.37 345.16 770.13
  C 345.24 767.48 346.06 765.02 345.97 762.31
  C 345.71 754.92 346.94 747.82 346.93 740.50
  C 346.92 734.16 347.85 727.98 347.98 721.69
  Q 348.08 717.12 348.57 712.57
  C 349.12 707.54 348.78 702.35 349.31 697.24
  Q 349.85 692.11 349.91 687.71
  C 349.98 682.04 350.86 676.60 350.93 670.93
  C 351.00 665.29 351.85 659.81 351.98 654.21
  Q 352.08 649.89 352.58 645.60
  C 353.06 641.47 352.84 637.30 353.24 633.13
  C 353.83 626.81 353.86 621.51 354.47 615.73
  C 355.02 610.48 354.89 605.08 355.52 599.73
  C 356.03 595.31 355.97 591.09 356.33 586.73
  C 357.13 577.32 357.74 567.92 358.57 558.51
  C 358.81 555.85 358.72 553.80 360.28 551.44
  Q 362.09 548.70 363.98 546.01
  Q 376.37 528.34 377.95 506.96
  C 378.95 493.40 381.53 480.09 387.07 468.78
  C 392.56 457.57 397.13 449.72 404.71 441.57
  A 1.10 1.10 0.0 0 0 404.66 440.02
  Q 403.02 438.46 401.41 437.37
  Q 385.90 426.85 369.72 416.13
  A 1.09 1.09 0.0 0 0 368.14 416.55
  C 366.09 420.63 364.48 425.09 362.43 429.07
  Q 359.54 434.69 357.03 440.49
  C 354.97 445.24 349.28 446.20 344.86 444.42
  C 340.43 442.63 339.03 439.35 339.00 434.49
  Q 338.91 418.46 339.07 413.78
  C 339.13 411.81 339.98 409.14 339.98 406.71
  Q 340.01 379.11 340.01 351.50
  Q 340.01 346.93 340.36 343.47
  C 341.58 331.45 341.01 319.08 340.95 307.00
  C 340.92 302.62 341.80 297.90 341.92 293.99
  C 342.10 287.89 342.01 281.92 342.73 275.83
  Q 342.99 273.71 342.99 272.16
  Q 342.99 257.40 343.02 242.64
  C 343.03 239.96 343.98 237.47 343.96 234.75
  C 343.92 225.64 343.88 217.01 345.12 207.81
  Q 356.72 121.78 368.33 35.76
  Q 369.08 30.15 368.24 26.76
  C 366.45 19.58 360.87 13.72 353.48 12.29
  C 349.34 11.48 344.77 12.79 340.74 14.16
  Q 321.42 20.71 305.93 33.71
  Q 300.90 37.93 298.57 39.12
  C 295.00 40.93 287.72 43.01 283.99 41.45
  Q 270.23 35.72 264.97 33.81
  C 259.91 31.98 254.23 32.31 250.14 36.08
  C 244.27 41.48 245.53 47.49 248.24 54.82
  Q 256.51 77.23 264.18 99.86
  C 265.98 105.19 267.02 110.95 267.02 116.00
  Q 266.97 144.44 267.02 172.89
  C 267.03 179.77 267.92 187.74 267.94 195.25
  Q 268.00 223.24 268.02 251.23
  C 268.02 254.83 269.00 258.78 268.99 262.25
  Q 268.90 291.75 269.06 321.25
  Q 269.08 324.49 269.53 327.67
  Q 270.07 331.59 270.06 334.06
  Q 269.94 354.78 270.02 375.50
  C 270.02 377.00 269.00 378.93 269.00 380.87
  Q 269.00 395.87 269.00 410.95
  A 3.48 3.45 62.9 0 1 268.36 412.96
  Z"
/>
<path fill="#7b4f2c" d="
  M 268.36 412.96
  A 3.48 3.45 62.9 0 0 269.00 410.95
  Q 269.00 395.87 269.00 380.87
  C 269.00 378.93 270.02 377.00 270.02 375.50
  Q 269.94 354.78 270.06 334.06
  Q 270.07 331.59 269.53 327.67
  Q 269.08 324.49 269.06 321.25
  Q 268.90 291.75 268.99 262.25
  C 269.00 258.78 268.02 254.83 268.02 251.23
  Q 268.00 223.24 267.94 195.25
  C 267.92 187.74 267.03 179.77 267.02 172.89
  Q 266.97 144.44 267.02 116.00
  C 267.02 110.95 265.98 105.19 264.18 99.86
  Q 256.51 77.23 248.24 54.82
  C 245.53 47.49 244.27 41.48 250.14 36.08
  C 254.23 32.31 259.91 31.98 264.97 33.81
  Q 270.23 35.72 283.99 41.45
  C 287.72 43.01 295.00 40.93 298.57 39.12
  Q 300.90 37.93 305.93 33.71
  Q 321.42 20.71 340.74 14.16
  C 344.77 12.79 349.34 11.48 353.48 12.29
  C 360.87 13.72 366.45 19.58 368.24 26.76
  Q 369.08 30.15 368.33 35.76
  Q 356.72 121.78 345.12 207.81
  C 343.88 217.01 343.92 225.64 343.96 234.75
  C 343.98 237.47 343.03 239.96 343.02 242.64
  Q 342.99 257.40 342.99 272.16
  Q 342.99 273.71 342.73 275.83
  C 342.01 281.92 342.10 287.89 341.92 293.99
  C 341.80 297.90 340.92 302.62 340.95 307.00
  C 341.01 319.08 341.58 331.45 340.36 343.47
  Q 340.01 346.93 340.01 351.50
  Q 340.01 379.11 339.98 406.71
  C 339.98 409.14 339.13 411.81 339.07 413.78
  Q 338.91 418.46 339.00 434.49
  C 339.03 439.35 340.43 442.63 344.86 444.42
  C 349.28 446.20 354.97 445.24 357.03 440.49
  Q 359.54 434.69 362.43 429.07
  C 364.48 425.09 366.09 420.63 368.14 416.55
  A 1.09 1.09 0.0 0 1 369.72 416.13
  Q 385.90 426.85 401.41 437.37
  Q 403.02 438.46 404.66 440.02
  A 1.10 1.10 0.0 0 1 404.71 441.57
  C 397.13 449.72 392.56 457.57 387.07 468.78
  C 381.53 480.09 378.95 493.40 377.95 506.96
  Q 376.37 528.34 363.98 546.01
  Q 362.09 548.70 360.28 551.44
  C 358.72 553.80 358.81 555.85 358.57 558.51
  C 357.74 567.92 357.13 577.32 356.33 586.73
  C 355.97 591.09 356.03 595.31 355.52 599.73
  C 354.89 605.08 355.02 610.48 354.47 615.73
  C 353.86 621.51 353.83 626.81 353.24 633.13
  C 352.84 637.30 353.06 641.47 352.58 645.60
  Q 352.08 649.89 351.98 654.21
  C 351.85 659.81 351.00 665.29 350.93 670.93
  C 350.86 676.60 349.98 682.04 349.91 687.71
  Q 349.85 692.11 349.31 697.24
  C 348.78 702.35 349.12 707.54 348.57 712.57
  Q 348.08 717.12 347.98 721.69
  C 347.85 727.98 346.92 734.16 346.93 740.50
  C 346.94 747.82 345.71 754.92 345.97 762.31
  C 346.06 765.02 345.24 767.48 345.16 770.13
  C 345.01 775.37 345.28 780.73 344.50 785.92
  C 343.58 792.02 344.28 798.29 343.67 804.45
  Q 343.05 810.75 342.99 814.08
  C 342.90 818.17 343.29 822.02 342.46 826.10
  C 341.38 831.44 341.93 838.49 341.99 844.00
  C 342.01 845.70 341.19 848.25 341.14 850.36
  C 340.97 856.50 341.35 862.75 340.40 868.82
  C 339.63 873.68 339.97 879.39 339.96 884.33
  C 339.95 887.33 339.07 890.10 339.04 893.04
  Q 338.99 900.72 338.98 908.40
  C 338.97 910.55 338.11 912.74 338.09 914.71
  C 338.01 920.81 338.45 927.37 337.58 933.39
  C 336.65 939.91 337.01 946.82 336.95 953.41
  C 336.93 955.97 336.20 958.75 336.11 961.00
  Q 335.98 964.56 335.96 977.38
  C 335.96 980.34 335.05 983.08 335.04 985.99
  Q 335.00 994.95 334.97 1003.90
  C 334.96 1005.97 334.03 1008.02 334.03 1010.00
  Q 334.02 1019.41 333.96 1028.81
  C 333.94 1031.56 333.14 1034.17 333.10 1036.92
  Q 332.95 1047.21 332.98 1057.50
  C 332.99 1059.49 332.21 1062.22 332.15 1064.51
  C 331.92 1072.02 332.48 1079.82 331.68 1087.26
  C 330.62 1097.08 331.05 1106.87 330.97 1116.72
  C 330.95 1118.78 330.05 1120.89 330.05 1122.75
  Q 330.00 1135.40 329.97 1148.05
  C 329.96 1151.37 329.09 1154.58 329.07 1157.93
  Q 328.98 1171.84 328.97 1185.75
  C 328.97 1187.56 328.21 1190.23 328.15 1192.44
  Q 327.91 1201.92 328.01 1211.40
  C 328.06 1216.31 326.95 1220.92 326.98 1225.81
  Q 327.04 1237.23 326.97 1248.63
  C 326.96 1250.82 326.00 1253.00 326.00 1255.00
  Q 326.02 1294.03 325.98 1333.06
  C 325.97 1338.13 325.00 1344.51 325.00 1350.75
  Q 325.00 1395.13 325.05 1439.50
  Q 325.05 1442.55 324.94 1444.47
  Q 324.90 1445.16 324.35 1444.76
  C 322.75 1443.60 321.78 1441.64 320.79 1440.52
  Q 317.05 1436.33 313.60 1431.91
  Q 295.85 1409.16 281.28 1384.24
  Q 280.09 1382.19 280.08 1379.75
  Q 279.98 1350.25 279.97 1320.75
  C 279.97 1315.55 278.95 1310.42 278.95 1305.25
  Q 279.00 1217.38 278.87 1129.50
  Q 278.86 1127.66 278.81 1125.82
  C 278.74 1123.43 278.00 1120.81 278.00 1118.00
  Q 278.00 1028.53 278.00 939.06
  C 278.00 937.52 277.00 936.76 277.00 935.45
  Q 277.00 915.47 276.99 895.50
  C 276.98 890.02 270.59 881.10 268.31 876.65
  Q 263.94 868.07 259.64 859.46
  C 254.70 849.55 249.96 838.55 245.13 828.13
  A 1.13 1.12 -24.1 0 1 245.71 826.62
  Q 253.99 823.03 260.14 816.39
  Q 261.13 815.32 262.09 816.42
  Q 270.67 826.22 278.84 836.14
  Q 279.94 837.47 281.39 836.98
  A 2.30 2.29 -8.9 0 0 282.95 834.85
  C 283.10 826.03 283.56 816.46 282.59 807.75
  C 281.74 800.17 282.00 792.56 281.97 784.95
  C 281.96 781.83 280.93 778.92 281.01 775.95
  Q 281.30 764.44 280.45 752.98
  C 279.90 745.44 280.07 738.37 279.89 731.01
  C 279.82 728.25 279.04 725.56 279.04 722.81
  Q 279.06 712.92 278.85 703.03
  C 278.81 701.03 278.11 698.90 278.07 696.95
  Q 277.97 691.91 277.98 677.44
  C 277.98 674.38 276.91 671.52 276.98 668.46
  C 277.26 656.29 276.29 644.50 275.96 632.08
  C 275.66 620.56 275.01 611.07 274.81 596.18
  C 274.77 593.48 274.16 590.44 274.12 587.50
  C 274.03 580.73 274.67 572.86 273.68 566.25
  C 272.51 558.44 273.04 550.33 272.88 542.43
  C 272.81 539.37 272.03 535.84 272.04 532.75
  C 272.05 525.03 272.16 517.43 271.28 509.74
  C 270.48 502.76 271.02 495.16 270.88 488.09
  C 270.83 485.23 270.10 481.91 270.06 478.75
  Q 269.98 470.63 270.02 462.50
  Q 270.02 460.90 268.59 459.41
  C 257.34 447.77 254.34 431.68 264.04 417.91
  C 265.17 416.31 267.10 414.70 268.36 412.96
  Z"
/>
</svg>
